<?xml version="1.0" encoding="utf-8"?>
<!-- Generator: Adobe Illustrator 17.0.0, SVG Export Plug-In . SVG Version: 6.00 Build 0)  -->
<!DOCTYPE svg PUBLIC "-//W3C//DTD SVG 1.1//EN" "http://www.w3.org/Graphics/SVG/1.1/DTD/svg11.dtd">
<svg version="1.1" id="Capa_1" xmlns="http://www.w3.org/2000/svg" xmlns:xlink="http://www.w3.org/1999/xlink" x="0px" y="0px"
	 width="651.561px" height="268.166px" viewBox="0 0 651.561 268.166" enable-background="new 0 0 651.561 268.166"
	 xml:space="preserve">
<rect id="XMLID_556_" x="-136.439" y="660.853" fill="#FF4D3D" width="928" height="932"/>
<g id="XMLID_517_">
	<g id="XMLID_546_">
		<path id="XMLID_555_" fill="#33D5BA" d="M250.591,1127.229c23.724-17.007,39.263-44.741,39.263-76.093H260.13
			c0,29.703-20.391,54.665-47.889,61.81V996h-29.725v213.036h29.725v-63.401c32.023,3.446,57.046,30.62,57.046,63.544h29.725
			C299.011,1173.939,279.429,1143.21,250.591,1127.229z"/>
		<rect id="XMLID_554_" x="322.297" y="996" fill="#33D5BA" width="29.725" height="213.036"/>
		<path id="XMLID_553_" fill="#33D5BA" d="M525.059,1092.646l-22.693,22.695c1.432,4.66,2.203,9.633,2.203,14.82
			c0,27.56-21.697,49.152-49.393,49.152c-27.699,0-49.396-21.591-49.396-49.152s21.696-49.152,49.396-49.152
			c5.123,0,10.037,0.747,14.65,2.126l22.751-22.753c-11.081-5.806-23.78-9.098-37.401-9.098c-44.368,0-79.12,34.647-79.12,78.876
			s34.752,78.876,79.12,78.876c44.365,0,79.118-34.647,79.118-78.876C534.292,1116.49,530.956,1103.745,525.059,1092.646z"/>
		<path id="XMLID_552_" fill="#33D5BA" d="M448.965,1123.391c-3.477,3.452-3.497,9.069-0.045,12.546l0,0
			c3.452,3.477,9.069,3.497,12.546,0.045l59.431-59.003l-12.501-12.591l-0.023,0.022L448.965,1123.391z"/>
		<g id="XMLID_550_">
			<path id="XMLID_551_" fill="#33D5BA" d="M604.549,1110.959c-5.081-1.802-22.469-7.473-21.861-17.732
				c0.487-8.224,11.205-12.935,21.342-11.791c12.005,1.355,17.498,7.755,17.607,7.92l20.73-20.553
				c-8.017-9.412-21.158-16.083-35.113-17.572c-26.972-2.879-52.182,14.514-54.771,38.771c-1.305,12.226,2.63,33.443,40.871,47.817
				c26.377,9.915,28.308,18.03,27.723,23.505c-1.123,10.524-13.627,17.895-27.361,16.711c-16.17-1.395-26.148-15.864-26.148-15.864
				l-20.117,19.971c8.675,13.869,24.267,24.093,43.041,26.097c30.6,3.267,57.87-16.332,60.791-43.689
				C653.889,1140.138,638.166,1122.876,604.549,1110.959z"/>
		</g>
		<path id="XMLID_547_" fill="#33D5BA" d="M79.022,1051.136C35.448,1051.136,0,1086.584,0,1130.16
			c0,43.572,35.448,79.019,79.022,79.019c21.661,0,41.86-8.584,56.888-24.177l0.003,0.002c0.017-0.018,0.033-0.036,0.05-0.054
			c0.005-0.005,0.009-0.009,0.014-0.014l-0.001,0c4.716-4.901,8.709-10.3,11.964-16.065h-38.395
			c-8.653,6.859-19.269,10.584-30.522,10.584c-22.005,0-40.688-14.491-47.008-34.433H156.59c0.919-4.82,1.454-9.776,1.454-14.865
			h0.002C158.045,1086.583,122.595,1051.136,79.022,1051.136z M32.014,1115.298c6.318-19.946,25.003-34.437,47.008-34.437
			c22.007,0,40.692,14.491,47.01,34.437H32.014z"/>
	</g>
	<g id="XMLID_518_">
		<g id="XMLID_540_">
			<path id="XMLID_543_" fill="#FFFFFF" d="M446.344,1233.184h2.741v8.348c0.619-0.802,1.357-1.416,2.218-1.839
				c0.859-0.423,1.792-0.634,2.798-0.634c2.097,0,3.798,0.718,5.103,2.151c1.305,1.436,1.958,3.553,1.958,6.352
				c0,2.654-0.646,4.858-1.934,6.61c-1.29,1.755-3.077,2.634-5.362,2.634c-1.28,0-2.359-0.309-3.24-0.926
				c-0.523-0.366-1.085-0.95-1.683-1.755v2.147h-2.6V1233.184z M457.124,1252.497c0.76-1.211,1.139-2.808,1.139-4.795
				c0-1.761-0.379-3.224-1.139-4.385c-0.76-1.158-1.877-1.738-3.355-1.738c-1.288,0-2.418,0.476-3.387,1.426
				c-0.968,0.95-1.453,2.516-1.453,4.697c0,1.577,0.198,2.859,0.597,3.839c0.743,1.849,2.132,2.771,4.164,2.771
				C455.22,1254.312,456.364,1253.709,457.124,1252.497z"/>
			<path id="XMLID_541_" fill="#FFFFFF" d="M474.905,1239.496h3.117c-0.396,1.077-1.278,3.533-2.647,7.365
				c-1.023,2.885-1.879,5.234-2.568,7.053c-1.627,4.278-2.775,6.888-3.443,7.828c-0.668,0.936-1.815,1.406-3.443,1.406
				c-0.396,0-0.701-0.013-0.916-0.047c-0.213-0.03-0.478-0.087-0.79-0.171v-2.57c0.49,0.138,0.844,0.221,1.064,0.252
				c0.218,0.03,0.411,0.047,0.579,0.047c0.52,0,0.904-0.087,1.149-0.258s0.451-0.383,0.617-0.631
				c0.052-0.084,0.24-0.513,0.562-1.282c0.324-0.772,0.559-1.346,0.705-1.721l-6.202-17.27h3.194l4.496,13.666L474.905,1239.496z"/>
		</g>
		<g id="XMLID_519_">
			<g id="XMLID_521_">
				<path id="path4439_11_" fill="#FFFFFF" d="M613.18,1253.021h17.564c0.19-6.981-4.26-12.068-10.776-12.068
					c-7.132,0-11.973,4.825-11.973,11.464c0,6.642,4.861,11.723,13.26,11.749c4.159,0.013,6.768-1.407,8.763-2.686l0.003-4.092
					c0,0-4.362,2.424-8.625,2.283C617.659,1259.546,613.276,1258.031,613.18,1253.021 M619.916,1245.031
					c3.114,0,5.772,2.685,5.772,4.28h-12.265C613.423,1247.511,615.849,1245.031,619.916,1245.031"/>
				<path id="path4441_11_" fill="#FFFFFF" d="M555.751,1232.326v-0.141h-8.083v0.141c1.001,0.594,1.253,2.297,1.308,4.016v22.713
					c-0.049,1.773-0.292,3.59-1.308,4.171v0.141h8.083v-0.141c-1.019-0.611-1.259-2.431-1.308-4.194v-22.473
					C554.492,1234.781,554.732,1232.941,555.751,1232.326"/>
				<path id="path4443_11_" fill="#FFFFFF" d="M597.119,1246.92c3.151-0.628,7.053-2.473,7.053-7.295
					c0-4.525-3.739-7.46-11.264-7.46l-2.893,0.02h-8.083v0.141c1.001,0.594,1.249,2.297,1.308,4.018v22.715
					c-0.052,1.771-0.292,3.588-1.308,4.167v0.141h8.083v-0.003l4.538-0.01c6.929,0,11.976-2.515,11.976-8.888
					C606.53,1248.219,600.099,1246.96,597.119,1246.92 M588.711,1236.623c0.007-0.195,0.017-0.39,0.027-0.589
					c0.764-0.042,1.462-0.121,2.236-0.121c5.797,0,7.628,1.394,7.628,4.255c0,4.003-4.312,4.882-8.546,4.882
					c-0.416,0-0.509,0-1.345-0.07V1236.623L588.711,1236.623z M593.373,1259.344c-1.786,0-2.952-0.084-4.663-0.359v-9.792
					c0.62-0.074,1.301-0.112,1.869-0.112c5.49,0,10.109,0.551,10.109,5.386C600.69,1257.393,598.905,1259.344,593.373,1259.344"/>
				<path id="path4445_11_" fill="#FFFFFF" d="M646.111,1241.493l-0.007,0.144c0.754,0.591,0.334,2.273-0.302,3.979l-4.459,11.001
					l-6.122-15.124h-6.716v0.144c1.242,0.594,2.178,2.297,2.928,4.019l5.426,13.401c1.466,3.392,5.601,4.308,5.601,4.308h0.243
					l8.857-21.874H646.111L646.111,1241.493z"/>
				<path id="path4447_11_" fill="#FFFFFF" d="M579.112,1259.03l0.01-10.238c-0.059-1.645-0.292-3.338-1.167-4.584
					c-1.504-2.22-4.528-3.254-7.169-3.254c-2.98,0-4.253,0.141-6.451,2.042l-0.024,0.034l0.003-1.518h-6.805v0.146
					c0.997,0.591,1.249,2.292,1.305,4.013v13.388c-0.052,1.771-0.289,3.588-1.305,4.171v0.138h8.078v-0.138
					c-1.011-0.615-1.253-2.431-1.298-4.197l0.013-10.06c0.161-2.287,1.387-4.486,4.404-4.486c3.732,0,4.886,1.914,4.933,6.514v8.059
					c-0.049,1.771-0.289,3.588-1.305,4.171v0.138h8.081v-0.138C579.401,1262.613,579.159,1260.797,579.112,1259.03"/>
				<path id="path4451_11_" fill="#FFFFFF" d="M534.262,1246.92c3.158-0.628,7.06-2.473,7.06-7.295c0-4.525-3.739-7.46-11.268-7.46
					l-2.893,0.02h-8.081v0.141c1.001,0.594,1.246,2.297,1.298,4.018v8.905c-3.158,0.097-6.056,0.484-8.69,1.075l-5.729-14.137h-7.09
					l0.007,0.141c0.757,0.594,0.317,2.297-0.321,4.018l-9.201,22.715c-0.771,1.771-1.744,3.588-2.997,4.167v0.141h6.723
					c0.099-0.178,2.06-3.506,6.536-6.901c2.263-1.713,5.158-3.418,8.801-4.711l2.962,7.303c0.665,1.771,1.157,3.588,0.381,4.167
					l-0.003,0.141h6.833l-5.25-12.973c2.144-0.437,4.483-0.725,7.04-0.814v9.479c-0.042,1.771-0.289,3.588-1.298,4.167v0.141h8.081
					v-0.003l4.535-0.01c6.939,0,11.979-2.515,11.979-8.888C543.677,1248.219,537.25,1246.96,534.262,1246.92 M497.388,1252.726
					l5.712-14.097l3.692,9.11C502.986,1249.113,499.87,1250.901,497.388,1252.726 M525.859,1236.623
					c0.003-0.195,0.01-0.39,0.027-0.589c0.764-0.042,1.466-0.121,2.233-0.121c5.801,0,7.631,1.394,7.631,4.255
					c0,4.008-4.315,4.882-8.543,4.882c-0.416,0-0.512,0-1.348-0.07V1236.623z M530.521,1259.344c-1.785,0-2.952-0.084-4.663-0.359
					v-9.792c0.623-0.074,1.301-0.112,1.872-0.112c5.492,0,10.109,0.551,10.109,5.386
					C537.84,1257.393,536.053,1259.344,530.521,1259.344"/>
			</g>
		</g>
	</g>
</g>
<rect id="XMLID_725_" x="-136.439" y="1688.853" fill="#FFD13D" width="928" height="932"/>
<g id="XMLID_686_">
	<g id="XMLID_715_">
		<path id="XMLID_724_" fill="#6058C3" d="M250.591,2155.229c23.724-17.007,39.263-44.741,39.263-76.093H260.13
			c0,29.703-20.391,54.665-47.889,61.81V2024h-29.725v213.036h29.725v-63.401c32.023,3.446,57.046,30.62,57.046,63.544h29.725
			C299.011,2201.939,279.429,2171.21,250.591,2155.229z"/>
		<rect id="XMLID_723_" x="322.297" y="2024" fill="#6058C3" width="29.725" height="213.036"/>
		<path id="XMLID_722_" fill="#6058C3" d="M525.059,2120.646l-22.693,22.695c1.432,4.659,2.203,9.633,2.203,14.82
			c0,27.56-21.697,49.152-49.393,49.152c-27.699,0-49.396-21.592-49.396-49.152c0-27.561,21.696-49.152,49.396-49.152
			c5.123,0,10.037,0.747,14.65,2.126l22.751-22.753c-11.081-5.806-23.78-9.098-37.401-9.098c-44.368,0-79.12,34.647-79.12,78.876
			c0,44.229,34.752,78.876,79.12,78.876c44.365,0,79.118-34.647,79.118-78.876C534.292,2144.49,530.956,2131.745,525.059,2120.646z"
			/>
		<path id="XMLID_721_" fill="#6058C3" d="M448.965,2151.391c-3.477,3.452-3.497,9.07-0.045,12.547l0,0
			c3.452,3.477,9.069,3.497,12.546,0.045l59.431-59.002l-12.501-12.591l-0.023,0.022L448.965,2151.391z"/>
		<g id="XMLID_719_">
			<path id="XMLID_720_" fill="#6058C3" d="M604.549,2138.959c-5.081-1.802-22.469-7.473-21.861-17.732
				c0.487-8.224,11.205-12.935,21.342-11.791c12.005,1.355,17.498,7.755,17.607,7.92l20.73-20.553
				c-8.017-9.412-21.158-16.083-35.113-17.572c-26.972-2.88-52.182,14.513-54.771,38.771c-1.305,12.227,2.63,33.443,40.871,47.816
				c26.377,9.915,28.308,18.03,27.723,23.505c-1.123,10.524-13.627,17.895-27.361,16.711c-16.17-1.395-26.148-15.864-26.148-15.864
				l-20.117,19.971c8.675,13.868,24.267,24.093,43.041,26.097c30.6,3.267,57.87-16.332,60.791-43.689
				C653.889,2168.138,638.166,2150.876,604.549,2138.959z"/>
		</g>
		<path id="XMLID_716_" fill="#6058C3" d="M79.022,2079.136C35.448,2079.136,0,2114.584,0,2158.16
			c0,43.572,35.448,79.02,79.022,79.02c21.661,0,41.86-8.584,56.888-24.177l0.003,0.001c0.017-0.018,0.033-0.036,0.05-0.053
			c0.005-0.005,0.009-0.009,0.014-0.014l-0.001,0c4.716-4.901,8.709-10.3,11.964-16.065h-38.395
			c-8.653,6.859-19.269,10.584-30.522,10.584c-22.005,0-40.688-14.491-47.008-34.433H156.59c0.919-4.82,1.454-9.776,1.454-14.865
			h0.002C158.045,2114.583,122.595,2079.136,79.022,2079.136z M32.014,2143.298c6.318-19.946,25.003-34.437,47.008-34.437
			c22.007,0,40.692,14.491,47.01,34.437H32.014z"/>
	</g>
	<g id="XMLID_687_">
		<g id="XMLID_709_">
			<path id="XMLID_712_" fill="#FFFFFF" d="M446.344,2261.184h2.741v8.348c0.619-0.802,1.357-1.416,2.218-1.839
				c0.859-0.423,1.792-0.634,2.798-0.634c2.097,0,3.798,0.718,5.103,2.151c1.305,1.436,1.958,3.553,1.958,6.352
				c0,2.654-0.646,4.858-1.934,6.61c-1.29,1.755-3.077,2.634-5.362,2.634c-1.28,0-2.359-0.309-3.24-0.926
				c-0.523-0.366-1.085-0.949-1.683-1.755v2.147h-2.6V2261.184z M457.124,2280.497c0.76-1.211,1.139-2.808,1.139-4.795
				c0-1.761-0.379-3.224-1.139-4.385c-0.76-1.158-1.877-1.738-3.355-1.738c-1.288,0-2.418,0.476-3.387,1.426
				c-0.968,0.95-1.453,2.517-1.453,4.698c0,1.577,0.198,2.859,0.597,3.838c0.743,1.849,2.132,2.771,4.164,2.771
				C455.22,2282.312,456.364,2281.708,457.124,2280.497z"/>
			<path id="XMLID_710_" fill="#FFFFFF" d="M474.905,2267.496h3.117c-0.396,1.077-1.278,3.533-2.647,7.365
				c-1.023,2.886-1.879,5.234-2.568,7.053c-1.627,4.278-2.775,6.888-3.443,7.828c-0.668,0.936-1.815,1.406-3.443,1.406
				c-0.396,0-0.701-0.013-0.916-0.047c-0.213-0.03-0.478-0.087-0.79-0.171v-2.57c0.49,0.137,0.844,0.221,1.064,0.251
				c0.218,0.03,0.411,0.047,0.579,0.047c0.52,0,0.904-0.087,1.149-0.259c0.245-0.171,0.451-0.382,0.617-0.631
				c0.052-0.084,0.24-0.513,0.562-1.282c0.324-0.772,0.559-1.345,0.705-1.721l-6.202-17.27h3.194l4.496,13.666L474.905,2267.496z"/>
		</g>
		<g id="XMLID_688_">
			<g id="XMLID_690_">
				<path id="path4439_18_" fill="#FFFFFF" d="M613.18,2281.021h17.564c0.19-6.981-4.26-12.068-10.776-12.068
					c-7.132,0-11.973,4.825-11.973,11.464c0,6.642,4.861,11.723,13.26,11.75c4.159,0.013,6.768-1.407,8.763-2.687l0.003-4.092
					c0,0-4.362,2.424-8.625,2.283C617.659,2287.546,613.276,2286.031,613.18,2281.021 M619.916,2273.031
					c3.114,0,5.772,2.685,5.772,4.28h-12.265C613.423,2275.511,615.849,2273.031,619.916,2273.031"/>
				<path id="path4441_18_" fill="#FFFFFF" d="M555.751,2260.326v-0.141h-8.083v0.141c1.001,0.594,1.253,2.297,1.308,4.016v22.713
					c-0.049,1.773-0.292,3.59-1.308,4.17v0.141h8.083v-0.141c-1.019-0.611-1.259-2.431-1.308-4.194v-22.473
					C554.492,2262.781,554.732,2260.941,555.751,2260.326"/>
				<path id="path4443_18_" fill="#FFFFFF" d="M597.119,2274.92c3.151-0.628,7.053-2.473,7.053-7.295
					c0-4.525-3.739-7.46-11.264-7.46l-2.893,0.02h-8.083v0.141c1.001,0.594,1.249,2.297,1.308,4.018v22.715
					c-0.052,1.771-0.292,3.588-1.308,4.167v0.141h8.083v-0.003l4.538-0.01c6.929,0,11.976-2.515,11.976-8.888
					C606.53,2276.219,600.099,2274.96,597.119,2274.92 M588.711,2264.623c0.007-0.195,0.017-0.39,0.027-0.589
					c0.764-0.042,1.462-0.121,2.236-0.121c5.797,0,7.628,1.394,7.628,4.254c0,4.003-4.312,4.883-8.546,4.883
					c-0.416,0-0.509,0-1.345-0.071V2264.623L588.711,2264.623z M593.373,2287.344c-1.786,0-2.952-0.084-4.663-0.359v-9.792
					c0.62-0.074,1.301-0.113,1.869-0.113c5.49,0,10.109,0.551,10.109,5.386C600.69,2285.393,598.905,2287.344,593.373,2287.344"/>
				<path id="path4445_18_" fill="#FFFFFF" d="M646.111,2269.493l-0.007,0.144c0.754,0.591,0.334,2.273-0.302,3.979l-4.459,11
					l-6.122-15.124h-6.716v0.144c1.242,0.594,2.178,2.297,2.928,4.02l5.426,13.402c1.466,3.391,5.601,4.308,5.601,4.308h0.243
					l8.857-21.874H646.111L646.111,2269.493z"/>
				<path id="path4447_18_" fill="#FFFFFF" d="M579.112,2287.03l0.01-10.239c-0.059-1.645-0.292-3.338-1.167-4.583
					c-1.504-2.219-4.528-3.254-7.169-3.254c-2.98,0-4.253,0.141-6.451,2.042l-0.024,0.033l0.003-1.518h-6.805v0.146
					c0.997,0.591,1.249,2.292,1.305,4.013v13.388c-0.052,1.771-0.289,3.588-1.305,4.17v0.138h8.078v-0.138
					c-1.011-0.615-1.253-2.431-1.298-4.197l0.013-10.061c0.161-2.287,1.387-4.486,4.404-4.486c3.732,0,4.886,1.914,4.933,6.514
					v8.059c-0.049,1.771-0.289,3.588-1.305,4.17v0.138h8.081v-0.138C579.401,2290.613,579.159,2288.796,579.112,2287.03"/>
				<path id="path4451_18_" fill="#FFFFFF" d="M534.262,2274.92c3.158-0.628,7.06-2.473,7.06-7.295c0-4.525-3.739-7.46-11.268-7.46
					l-2.893,0.02h-8.081v0.141c1.001,0.594,1.246,2.297,1.298,4.018v8.905c-3.158,0.097-6.056,0.484-8.69,1.074l-5.729-14.137h-7.09
					l0.007,0.141c0.757,0.594,0.317,2.297-0.321,4.018l-9.201,22.715c-0.771,1.771-1.744,3.588-2.997,4.167v0.141h6.723
					c0.099-0.178,2.06-3.506,6.536-6.901c2.263-1.712,5.158-3.418,8.801-4.711l2.962,7.303c0.665,1.771,1.157,3.588,0.381,4.167
					l-0.003,0.141h6.833l-5.25-12.973c2.144-0.437,4.483-0.725,7.04-0.814v9.479c-0.042,1.771-0.289,3.588-1.298,4.167v0.141h8.081
					v-0.003l4.535-0.01c6.939,0,11.979-2.515,11.979-8.888C543.677,2276.219,537.25,2274.96,534.262,2274.92 M497.388,2280.726
					l5.712-14.096l3.692,9.11C502.986,2277.113,499.87,2278.901,497.388,2280.726 M525.859,2264.623
					c0.003-0.195,0.01-0.39,0.027-0.589c0.764-0.042,1.466-0.121,2.233-0.121c5.801,0,7.631,1.394,7.631,4.254
					c0,4.008-4.315,4.883-8.543,4.883c-0.416,0-0.512,0-1.348-0.071V2264.623z M530.521,2287.344c-1.785,0-2.952-0.084-4.663-0.359
					v-9.792c0.623-0.074,1.301-0.113,1.872-0.113c5.492,0,10.109,0.551,10.109,5.386
					C537.84,2285.393,536.053,2287.344,530.521,2287.344"/>
			</g>
		</g>
	</g>
</g>
<rect id="XMLID_299_" x="2947.09" y="-335.147" fill="#6058C3" width="928" height="932"/>
<g id="XMLID_256_">
	<g id="XMLID_289_">
		<path id="XMLID_298_" fill="#FFFFFF" d="M3334.121,131.229c23.724-17.007,39.263-44.741,39.263-76.093h-29.725
			c0,29.703-20.391,54.665-47.889,61.81V0h-29.725v213.036h29.725v-63.401c32.023,3.446,57.046,30.62,57.046,63.544h29.725
			C3382.541,177.939,3362.958,147.21,3334.121,131.229z"/>
		<rect id="XMLID_297_" x="3405.827" y="0" fill="#FFFFFF" width="29.725" height="213.036"/>
		<path id="XMLID_296_" fill="#FFFFFF" d="M3608.588,96.646l-22.693,22.695c1.432,4.66,2.203,9.633,2.203,14.82
			c0,27.56-21.697,49.152-49.393,49.152c-27.699,0-49.396-21.591-49.396-49.152s21.697-49.152,49.396-49.152
			c5.123,0,10.037,0.747,14.65,2.126l22.751-22.753c-11.081-5.806-23.78-9.098-37.401-9.098c-44.368,0-79.12,34.647-79.12,78.876
			s34.752,78.876,79.12,78.876c44.365,0,79.118-34.647,79.118-78.876C3617.822,120.49,3614.485,107.745,3608.588,96.646z"/>
		<path id="XMLID_295_" fill="#FFFFFF" d="M3532.494,127.391c-3.477,3.452-3.497,9.069-0.045,12.546v0
			c3.452,3.477,9.069,3.497,12.546,0.045l59.431-59.003l-12.501-12.591l-0.023,0.022L3532.494,127.391z"/>
		<g id="XMLID_293_">
			<path id="XMLID_294_" fill="#FFFFFF" d="M3688.078,114.959c-5.081-1.802-22.469-7.473-21.861-17.732
				c0.487-8.224,11.205-12.935,21.342-11.791c12.005,1.355,17.498,7.755,17.607,7.92l20.73-20.553
				c-8.017-9.412-21.158-16.083-35.113-17.572c-26.972-2.879-52.182,14.514-54.771,38.771c-1.305,12.226,2.63,33.443,40.871,47.817
				c26.377,9.915,28.308,18.03,27.723,23.505c-1.124,10.524-13.627,17.895-27.361,16.711c-16.17-1.395-26.148-15.864-26.148-15.864
				l-20.117,19.971c8.675,13.869,24.267,24.093,43.041,26.097c30.6,3.267,57.87-16.332,60.791-43.689
				C3737.419,144.138,3721.696,126.876,3688.078,114.959z"/>
		</g>
		<path id="XMLID_290_" fill="#FFFFFF" d="M3162.551,55.136c-43.574,0-79.022,35.448-79.022,79.024
			c0,43.572,35.448,79.019,79.022,79.019c21.661,0,41.86-8.584,56.888-24.177l0.003,0.002c0.017-0.018,0.033-0.036,0.05-0.054
			c0.004-0.005,0.009-0.009,0.014-0.014l0-0.001c4.716-4.901,8.709-10.3,11.963-16.065h-38.395
			c-8.653,6.859-19.268,10.584-30.522,10.584c-22.005,0-40.688-14.491-47.008-34.433h124.576c0.919-4.82,1.454-9.776,1.454-14.865
			h0.002C3241.574,90.583,3206.124,55.136,3162.551,55.136z M3115.543,119.298c6.318-19.946,25.003-34.437,47.008-34.437
			c22.007,0,40.692,14.491,47.01,34.437H3115.543z"/>
	</g>
	<g id="XMLID_257_">
		<g id="XMLID_283_">
			<path id="XMLID_286_" fill="#FFFFFF" d="M3529.873,237.184h2.741v8.348c0.619-0.802,1.357-1.416,2.218-1.839
				c0.859-0.423,1.792-0.634,2.798-0.634c2.097,0,3.798,0.718,5.104,2.151c1.305,1.436,1.958,3.553,1.958,6.352
				c0,2.654-0.646,4.858-1.934,6.61c-1.29,1.755-3.077,2.634-5.362,2.634c-1.28,0-2.359-0.309-3.24-0.926
				c-0.523-0.366-1.085-0.95-1.683-1.755v2.147h-2.6V237.184z M3540.654,256.497c0.76-1.211,1.139-2.808,1.139-4.795
				c0-1.762-0.379-3.224-1.139-4.385c-0.76-1.158-1.877-1.738-3.355-1.738c-1.288,0-2.417,0.476-3.387,1.426
				c-0.968,0.95-1.453,2.516-1.453,4.697c0,1.577,0.198,2.859,0.597,3.838c0.743,1.849,2.132,2.771,4.164,2.771
				C3538.749,258.313,3539.894,257.709,3540.654,256.497z"/>
			<path id="XMLID_284_" fill="#FFFFFF" d="M3558.435,243.496h3.117c-0.396,1.077-1.279,3.533-2.647,7.365
				c-1.023,2.886-1.879,5.234-2.568,7.053c-1.627,4.278-2.775,6.888-3.443,7.828c-0.668,0.936-1.815,1.406-3.442,1.406
				c-0.396,0-0.701-0.013-0.916-0.047c-0.213-0.03-0.478-0.087-0.79-0.171v-2.57c0.49,0.138,0.844,0.221,1.064,0.252
				c0.218,0.03,0.411,0.047,0.579,0.047c0.52,0,0.904-0.087,1.149-0.258c0.245-0.171,0.451-0.382,0.617-0.631
				c0.052-0.084,0.24-0.513,0.562-1.282c0.324-0.772,0.559-1.345,0.705-1.721l-6.202-17.27h3.194l4.496,13.666L3558.435,243.496z"/>
		</g>
		<g id="XMLID_258_">
			<g id="XMLID_261_">
				<path id="path4439_6_" fill="#FFFFFF" d="M3696.709,257.021h17.564c0.19-6.981-4.26-12.068-10.776-12.068
					c-7.132,0-11.973,4.825-11.973,11.464c0,6.642,4.861,11.723,13.26,11.749c4.159,0.013,6.768-1.407,8.762-2.686l0.003-4.092
					c0,0-4.362,2.424-8.625,2.283C3701.189,263.546,3696.805,262.031,3696.709,257.021 M3703.445,249.031
					c3.115,0,5.772,2.685,5.772,4.28h-12.265C3696.953,251.511,3699.379,249.031,3703.445,249.031"/>
				<path id="path4441_6_" fill="#FFFFFF" d="M3639.28,236.326v-0.141h-8.083v0.141c1,0.594,1.252,2.297,1.308,4.016v22.713
					c-0.049,1.773-0.292,3.59-1.308,4.171v0.141h8.083v-0.141c-1.019-0.611-1.259-2.431-1.308-4.194v-22.473
					C3638.021,238.781,3638.261,236.941,3639.28,236.326"/>
				<path id="path4443_6_" fill="#FFFFFF" d="M3680.648,250.92c3.151-0.628,7.053-2.473,7.053-7.295c0-4.525-3.739-7.46-11.264-7.46
					l-2.893,0.02h-8.083v0.141c1.001,0.594,1.249,2.297,1.308,4.018v22.715c-0.052,1.771-0.292,3.588-1.308,4.167v0.141h8.083
					v-0.003l4.538-0.01c6.929,0,11.976-2.515,11.976-8.888C3690.059,252.219,3683.628,250.96,3680.648,250.92 M3672.24,240.623
					c0.007-0.195,0.017-0.39,0.027-0.589c0.764-0.042,1.462-0.121,2.236-0.121c5.798,0,7.628,1.394,7.628,4.255
					c0,4.003-4.312,4.882-8.546,4.882c-0.417,0-0.509,0-1.345-0.07V240.623L3672.24,240.623z M3676.903,263.344
					c-1.787,0-2.952-0.084-4.663-0.359v-9.792c0.62-0.074,1.301-0.113,1.869-0.113c5.49,0,10.109,0.551,10.109,5.386
					C3684.219,261.393,3682.435,263.344,3676.903,263.344"/>
				<path id="path4445_6_" fill="#FFFFFF" d="M3729.641,245.493l-0.007,0.144c0.754,0.591,0.334,2.273-0.302,3.979l-4.459,11.001
					l-6.122-15.124h-6.716v0.144c1.242,0.594,2.177,2.297,2.928,4.019l5.427,13.402c1.466,3.392,5.601,4.308,5.601,4.308h0.243
					l8.856-21.874H3729.641L3729.641,245.493z"/>
				<path id="path4447_6_" fill="#FFFFFF" d="M3662.641,263.03l0.01-10.238c-0.059-1.645-0.292-3.338-1.167-4.584
					c-1.504-2.22-4.528-3.254-7.169-3.254c-2.98,0-4.253,0.141-6.451,2.042l-0.023,0.034l0.003-1.518h-6.805v0.146
					c0.997,0.591,1.249,2.292,1.304,4.013v13.388c-0.052,1.771-0.289,3.588-1.304,4.171v0.138h8.077v-0.138
					c-1.011-0.615-1.252-2.431-1.298-4.197l0.013-10.06c0.161-2.287,1.387-4.486,4.404-4.486c3.732,0,4.886,1.914,4.933,6.514v8.059
					c-0.049,1.771-0.289,3.588-1.305,4.171v0.138h8.081v-0.138C3662.93,266.613,3662.688,264.796,3662.641,263.03"/>
				<path id="path4451_6_" fill="#FFFFFF" d="M3617.791,250.92c3.158-0.628,7.06-2.473,7.06-7.295c0-4.525-3.739-7.46-11.267-7.46
					l-2.893,0.02h-8.081v0.141c1.001,0.594,1.246,2.297,1.298,4.018v8.905c-3.158,0.097-6.056,0.484-8.69,1.075l-5.729-14.137h-7.09
					l0.007,0.141c0.757,0.594,0.317,2.297-0.321,4.018l-9.201,22.715c-0.771,1.771-1.744,3.588-2.997,4.167v0.141h6.723
					c0.099-0.178,2.06-3.506,6.536-6.901c2.263-1.713,5.158-3.418,8.801-4.711l2.962,7.303c0.665,1.771,1.157,3.588,0.381,4.167
					l-0.003,0.141h6.833l-5.25-12.973c2.144-0.437,4.483-0.725,7.04-0.814v9.479c-0.042,1.771-0.289,3.588-1.298,4.167v0.141h8.081
					v-0.003l4.535-0.01c6.939,0,11.979-2.515,11.979-8.888C3627.207,252.219,3620.78,250.96,3617.791,250.92 M3580.918,256.726
					l5.712-14.097l3.692,9.11C3586.515,253.113,3583.399,254.901,3580.918,256.726 M3609.388,240.623
					c0.003-0.195,0.01-0.39,0.027-0.589c0.764-0.042,1.466-0.121,2.233-0.121c5.801,0,7.631,1.394,7.631,4.255
					c0,4.008-4.315,4.882-8.542,4.882c-0.416,0-0.512,0-1.348-0.07V240.623z M3614.05,263.344c-1.785,0-2.952-0.084-4.662-0.359
					v-9.792c0.623-0.074,1.301-0.113,1.872-0.113c5.492,0,10.109,0.551,10.109,5.386
					C3621.369,261.393,3619.583,263.344,3614.05,263.344"/>
			</g>
		</g>
	</g>
</g>
<rect id="XMLID_383_" x="883.561" y="660.853" fill="#33D5BA" width="928" height="932"/>
<g id="XMLID_337_">
	<g id="XMLID_373_">
		<path id="XMLID_382_" fill="#FF4D3D" d="M1270.591,1127.229c23.724-17.007,39.263-44.741,39.263-76.093h-29.724
			c0,29.703-20.391,54.665-47.889,61.81V996h-29.724v213.036h29.724v-63.401c32.023,3.446,57.046,30.62,57.046,63.544h29.724
			C1319.011,1173.939,1299.429,1143.21,1270.591,1127.229z"/>
		<rect id="XMLID_381_" x="1342.297" y="996" fill="#FF4D3D" width="29.725" height="213.036"/>
		<path id="XMLID_380_" fill="#FF4D3D" d="M1545.059,1092.646l-22.693,22.695c1.432,4.66,2.203,9.633,2.203,14.82
			c0,27.56-21.696,49.152-49.393,49.152c-27.699,0-49.396-21.591-49.396-49.152s21.696-49.152,49.396-49.152
			c5.123,0,10.037,0.747,14.65,2.126l22.751-22.753c-11.081-5.806-23.78-9.098-37.401-9.098c-44.368,0-79.12,34.647-79.12,78.876
			s34.752,78.876,79.12,78.876c44.365,0,79.118-34.647,79.118-78.876C1554.292,1116.49,1550.956,1103.745,1545.059,1092.646z"/>
		<path id="XMLID_379_" fill="#FF4D3D" d="M1468.965,1123.391c-3.477,3.452-3.497,9.069-0.045,12.546l0,0
			c3.452,3.477,9.069,3.497,12.546,0.045l59.431-59.003l-12.501-12.591l-0.023,0.022L1468.965,1123.391z"/>
		<g id="XMLID_377_">
			<path id="XMLID_378_" fill="#FF4D3D" d="M1624.549,1110.959c-5.081-1.802-22.469-7.473-21.861-17.732
				c0.487-8.224,11.205-12.935,21.342-11.791c12.005,1.355,17.498,7.755,17.607,7.92l20.73-20.553
				c-8.017-9.412-21.158-16.083-35.113-17.572c-26.972-2.879-52.182,14.514-54.771,38.771c-1.305,12.226,2.63,33.443,40.871,47.817
				c26.377,9.915,28.308,18.03,27.723,23.505c-1.123,10.524-13.627,17.895-27.361,16.711c-16.17-1.395-26.148-15.864-26.148-15.864
				l-20.117,19.971c8.675,13.869,24.267,24.093,43.041,26.097c30.6,3.267,57.87-16.332,60.791-43.689
				C1673.889,1140.138,1658.166,1122.876,1624.549,1110.959z"/>
		</g>
		<path id="XMLID_374_" fill="#FF4D3D" d="M1099.022,1051.136c-43.574,0-79.022,35.448-79.022,79.024
			c0,43.572,35.448,79.019,79.022,79.019c21.661,0,41.86-8.584,56.888-24.177l0.003,0.002c0.017-0.018,0.033-0.036,0.05-0.054
			c0.005-0.005,0.009-0.009,0.014-0.014l0,0c4.716-4.901,8.709-10.3,11.964-16.065h-38.395
			c-8.653,6.859-19.268,10.584-30.522,10.584c-22.005,0-40.688-14.491-47.008-34.433h124.576c0.919-4.82,1.454-9.776,1.454-14.865
			h0.002C1178.045,1086.583,1142.595,1051.136,1099.022,1051.136z M1052.014,1115.298c6.318-19.946,25.003-34.437,47.008-34.437
			c22.007,0,40.692,14.491,47.01,34.437H1052.014z"/>
	</g>
	<g id="XMLID_338_">
		<g id="XMLID_367_">
			<path id="XMLID_370_" fill="#FFFFFF" d="M1466.344,1233.184h2.741v8.348c0.619-0.802,1.357-1.416,2.218-1.839
				c0.859-0.423,1.792-0.634,2.798-0.634c2.097,0,3.798,0.718,5.103,2.151c1.305,1.436,1.958,3.553,1.958,6.352
				c0,2.654-0.646,4.858-1.934,6.61c-1.29,1.755-3.077,2.634-5.362,2.634c-1.28,0-2.359-0.309-3.24-0.926
				c-0.523-0.366-1.085-0.95-1.683-1.755v2.147h-2.6V1233.184z M1477.124,1252.497c0.76-1.211,1.139-2.808,1.139-4.795
				c0-1.761-0.379-3.224-1.139-4.385c-0.76-1.158-1.877-1.738-3.355-1.738c-1.288,0-2.417,0.476-3.387,1.426
				c-0.968,0.95-1.453,2.516-1.453,4.697c0,1.577,0.198,2.859,0.597,3.839c0.743,1.849,2.132,2.771,4.164,2.771
				C1475.22,1254.312,1476.364,1253.709,1477.124,1252.497z"/>
			<path id="XMLID_368_" fill="#FFFFFF" d="M1494.906,1239.496h3.117c-0.396,1.077-1.278,3.533-2.647,7.365
				c-1.023,2.885-1.879,5.234-2.568,7.053c-1.627,4.278-2.775,6.888-3.443,7.828c-0.668,0.936-1.815,1.406-3.443,1.406
				c-0.396,0-0.701-0.013-0.916-0.047c-0.213-0.03-0.478-0.087-0.79-0.171v-2.57c0.49,0.138,0.844,0.221,1.064,0.252
				c0.218,0.03,0.411,0.047,0.579,0.047c0.52,0,0.904-0.087,1.149-0.258c0.245-0.171,0.451-0.383,0.617-0.631
				c0.052-0.084,0.24-0.513,0.562-1.282c0.324-0.772,0.559-1.346,0.705-1.721l-6.202-17.27h3.194l4.496,13.666L1494.906,1239.496z"
				/>
		</g>
		<g id="XMLID_339_">
			<g id="XMLID_1079_">
				<path id="path4439_31_" fill="#FFFFFF" d="M1633.18,1253.021h17.564c0.19-6.981-4.26-12.068-10.776-12.068
					c-7.132,0-11.973,4.825-11.973,11.464c0,6.642,4.861,11.723,13.26,11.749c4.159,0.013,6.768-1.407,8.763-2.686l0.003-4.092
					c0,0-4.362,2.424-8.625,2.283C1637.659,1259.546,1633.276,1258.031,1633.18,1253.021 M1639.916,1245.031
					c3.115,0,5.772,2.685,5.772,4.28h-12.265C1633.423,1247.511,1635.849,1245.031,1639.916,1245.031"/>
				<path id="path4441_31_" fill="#FFFFFF" d="M1575.751,1232.326v-0.141h-8.083v0.141c1.001,0.594,1.252,2.297,1.308,4.016v22.713
					c-0.049,1.773-0.292,3.59-1.308,4.171v0.141h8.083v-0.141c-1.019-0.611-1.259-2.431-1.308-4.194v-22.473
					C1574.492,1234.781,1574.732,1232.941,1575.751,1232.326"/>
				<path id="path4443_31_" fill="#FFFFFF" d="M1617.119,1246.92c3.151-0.628,7.053-2.473,7.053-7.295
					c0-4.525-3.739-7.46-11.264-7.46l-2.893,0.02h-8.083v0.141c1.001,0.594,1.249,2.297,1.308,4.018v22.715
					c-0.052,1.771-0.292,3.588-1.308,4.167v0.141h8.083v-0.003l4.538-0.01c6.929,0,11.976-2.515,11.976-8.888
					C1626.53,1248.219,1620.099,1246.96,1617.119,1246.92 M1608.711,1236.623c0.007-0.195,0.017-0.39,0.027-0.589
					c0.764-0.042,1.462-0.121,2.236-0.121c5.797,0,7.628,1.394,7.628,4.255c0,4.003-4.312,4.882-8.546,4.882
					c-0.416,0-0.509,0-1.345-0.07V1236.623L1608.711,1236.623z M1613.373,1259.344c-1.786,0-2.952-0.084-4.662-0.359v-9.792
					c0.62-0.074,1.301-0.112,1.869-0.112c5.49,0,10.109,0.551,10.109,5.386C1620.69,1257.393,1618.905,1259.344,1613.373,1259.344"
					/>
				<path id="path4445_31_" fill="#FFFFFF" d="M1666.111,1241.493l-0.007,0.144c0.754,0.591,0.334,2.273-0.302,3.979l-4.459,11.001
					l-6.121-15.124h-6.716v0.144c1.242,0.594,2.178,2.297,2.928,4.019l5.427,13.401c1.466,3.392,5.601,4.308,5.601,4.308h0.244
					l8.856-21.874H1666.111L1666.111,1241.493z"/>
				<path id="path4447_31_" fill="#FFFFFF" d="M1599.112,1259.03l0.01-10.238c-0.059-1.645-0.292-3.338-1.167-4.584
					c-1.504-2.22-4.528-3.254-7.169-3.254c-2.98,0-4.253,0.141-6.451,2.042l-0.024,0.034l0.003-1.518h-6.805v0.146
					c0.997,0.591,1.249,2.292,1.305,4.013v13.388c-0.052,1.771-0.289,3.588-1.305,4.171v0.138h8.078v-0.138
					c-1.011-0.615-1.252-2.431-1.298-4.197l0.013-10.06c0.161-2.287,1.387-4.486,4.404-4.486c3.732,0,4.886,1.914,4.933,6.514v8.059
					c-0.049,1.771-0.289,3.588-1.305,4.171v0.138h8.081v-0.138C1599.401,1262.613,1599.159,1260.797,1599.112,1259.03"/>
				<path id="path4451_31_" fill="#FFFFFF" d="M1554.262,1246.92c3.158-0.628,7.06-2.473,7.06-7.295c0-4.525-3.739-7.46-11.267-7.46
					l-2.893,0.02h-8.081v0.141c1.001,0.594,1.246,2.297,1.298,4.018v8.905c-3.158,0.097-6.056,0.484-8.69,1.075l-5.729-14.137h-7.09
					l0.007,0.141c0.757,0.594,0.317,2.297-0.321,4.018l-9.201,22.715c-0.771,1.771-1.745,3.588-2.997,4.167v0.141h6.723
					c0.099-0.178,2.06-3.506,6.536-6.901c2.263-1.713,5.158-3.418,8.801-4.711l2.962,7.303c0.665,1.771,1.157,3.588,0.381,4.167
					l-0.003,0.141h6.833l-5.25-12.973c2.144-0.437,4.483-0.725,7.04-0.814v9.479c-0.042,1.771-0.289,3.588-1.298,4.167v0.141h8.081
					v-0.003l4.535-0.01c6.939,0,11.979-2.515,11.979-8.888C1563.677,1248.219,1557.25,1246.96,1554.262,1246.92 M1517.388,1252.726
					l5.712-14.097l3.692,9.11C1522.986,1249.113,1519.87,1250.901,1517.388,1252.726 M1545.859,1236.623
					c0.003-0.195,0.01-0.39,0.027-0.589c0.764-0.042,1.466-0.121,2.233-0.121c5.801,0,7.631,1.394,7.631,4.255
					c0,4.008-4.315,4.882-8.542,4.882c-0.416,0-0.512,0-1.348-0.07V1236.623z M1550.521,1259.344c-1.785,0-2.952-0.084-4.662-0.359
					v-9.792c0.623-0.074,1.301-0.112,1.872-0.112c5.492,0,10.109,0.551,10.109,5.386
					C1557.84,1257.393,1556.053,1259.344,1550.521,1259.344"/>
			</g>
		</g>
	</g>
</g>
<rect id="XMLID_808_" x="883.561" y="1688.853" fill="#6058C3" width="928" height="932"/>
<g id="XMLID_765_">
	<g id="XMLID_798_">
		<path id="XMLID_807_" fill="#FFD13D" d="M1270.591,2155.229c23.724-17.007,39.263-44.741,39.263-76.093h-29.724
			c0,29.703-20.391,54.665-47.889,61.81V2024h-29.724v213.036h29.724v-63.401c32.023,3.446,57.046,30.62,57.046,63.544h29.724
			C1319.011,2201.939,1299.429,2171.21,1270.591,2155.229z"/>
		<rect id="XMLID_806_" x="1342.297" y="2024" fill="#FFD13D" width="29.725" height="213.036"/>
		<path id="XMLID_805_" fill="#FFD13D" d="M1545.059,2120.646l-22.693,22.695c1.432,4.659,2.203,9.633,2.203,14.82
			c0,27.56-21.696,49.152-49.393,49.152c-27.699,0-49.396-21.592-49.396-49.152c0-27.561,21.696-49.152,49.396-49.152
			c5.123,0,10.037,0.747,14.65,2.126l22.751-22.753c-11.081-5.806-23.78-9.098-37.401-9.098c-44.368,0-79.12,34.647-79.12,78.876
			c0,44.229,34.752,78.876,79.12,78.876c44.365,0,79.118-34.647,79.118-78.876
			C1554.292,2144.49,1550.956,2131.745,1545.059,2120.646z"/>
		<path id="XMLID_804_" fill="#FFD13D" d="M1468.965,2151.391c-3.477,3.452-3.497,9.07-0.045,12.547l0,0
			c3.452,3.477,9.069,3.497,12.546,0.045l59.431-59.002l-12.501-12.591l-0.023,0.022L1468.965,2151.391z"/>
		<g id="XMLID_802_">
			<path id="XMLID_803_" fill="#FFD13D" d="M1624.549,2138.959c-5.081-1.802-22.469-7.473-21.861-17.732
				c0.487-8.224,11.205-12.935,21.342-11.791c12.005,1.355,17.498,7.755,17.607,7.92l20.73-20.553
				c-8.017-9.412-21.158-16.083-35.113-17.572c-26.972-2.88-52.182,14.513-54.771,38.771c-1.305,12.227,2.63,33.443,40.871,47.816
				c26.377,9.915,28.308,18.03,27.723,23.505c-1.123,10.524-13.627,17.895-27.361,16.711c-16.17-1.395-26.148-15.864-26.148-15.864
				l-20.117,19.971c8.675,13.868,24.267,24.093,43.041,26.097c30.6,3.267,57.87-16.332,60.791-43.689
				C1673.889,2168.138,1658.166,2150.876,1624.549,2138.959z"/>
		</g>
		<path id="XMLID_799_" fill="#FFD13D" d="M1099.022,2079.136c-43.574,0-79.022,35.448-79.022,79.024
			c0,43.572,35.448,79.02,79.022,79.02c21.661,0,41.86-8.584,56.888-24.177l0.003,0.001c0.017-0.018,0.033-0.036,0.05-0.053
			c0.005-0.005,0.009-0.009,0.014-0.014l0,0c4.716-4.901,8.709-10.3,11.964-16.065h-38.395
			c-8.653,6.859-19.268,10.584-30.522,10.584c-22.005,0-40.688-14.491-47.008-34.433h124.576c0.919-4.82,1.454-9.776,1.454-14.865
			h0.002C1178.045,2114.583,1142.595,2079.136,1099.022,2079.136z M1052.014,2143.298c6.318-19.946,25.003-34.437,47.008-34.437
			c22.007,0,40.692,14.491,47.01,34.437H1052.014z"/>
	</g>
	<g id="XMLID_766_">
		<g id="XMLID_792_">
			<path id="XMLID_795_" fill="#FFFFFF" d="M1466.344,2261.184h2.741v8.348c0.619-0.802,1.357-1.416,2.218-1.839
				c0.859-0.423,1.792-0.634,2.798-0.634c2.097,0,3.798,0.718,5.103,2.151c1.305,1.436,1.958,3.553,1.958,6.352
				c0,2.654-0.646,4.858-1.934,6.61c-1.29,1.755-3.077,2.634-5.362,2.634c-1.28,0-2.359-0.309-3.24-0.926
				c-0.523-0.366-1.085-0.949-1.683-1.755v2.147h-2.6V2261.184z M1477.124,2280.497c0.76-1.211,1.139-2.808,1.139-4.795
				c0-1.761-0.379-3.224-1.139-4.385c-0.76-1.158-1.877-1.738-3.355-1.738c-1.288,0-2.417,0.476-3.387,1.426
				c-0.968,0.95-1.453,2.517-1.453,4.698c0,1.577,0.198,2.859,0.597,3.838c0.743,1.849,2.132,2.771,4.164,2.771
				C1475.22,2282.312,1476.364,2281.708,1477.124,2280.497z"/>
			<path id="XMLID_793_" fill="#FFFFFF" d="M1494.906,2267.496h3.117c-0.396,1.077-1.278,3.533-2.647,7.365
				c-1.023,2.886-1.879,5.234-2.568,7.053c-1.627,4.278-2.775,6.888-3.443,7.828c-0.668,0.936-1.815,1.406-3.443,1.406
				c-0.396,0-0.701-0.013-0.916-0.047c-0.213-0.03-0.478-0.087-0.79-0.171v-2.57c0.49,0.137,0.844,0.221,1.064,0.251
				c0.218,0.03,0.411,0.047,0.579,0.047c0.52,0,0.904-0.087,1.149-0.259c0.245-0.171,0.451-0.382,0.617-0.631
				c0.052-0.084,0.24-0.513,0.562-1.282c0.324-0.772,0.559-1.345,0.705-1.721l-6.202-17.27h3.194l4.496,13.666L1494.906,2267.496z"
				/>
		</g>
		<g id="XMLID_767_">
			<g id="XMLID_769_">
				<path id="path4439_20_" fill="#FFFFFF" d="M1633.18,2281.021h17.564c0.19-6.981-4.26-12.068-10.776-12.068
					c-7.132,0-11.973,4.825-11.973,11.464c0,6.642,4.861,11.723,13.26,11.75c4.159,0.013,6.768-1.407,8.763-2.687l0.003-4.092
					c0,0-4.362,2.424-8.625,2.283C1637.659,2287.546,1633.276,2286.031,1633.18,2281.021 M1639.916,2273.031
					c3.115,0,5.772,2.685,5.772,4.28h-12.265C1633.423,2275.511,1635.849,2273.031,1639.916,2273.031"/>
				<path id="path4441_20_" fill="#FFFFFF" d="M1575.751,2260.326v-0.141h-8.083v0.141c1.001,0.594,1.252,2.297,1.308,4.016v22.713
					c-0.049,1.773-0.292,3.59-1.308,4.17v0.141h8.083v-0.141c-1.019-0.611-1.259-2.431-1.308-4.194v-22.473
					C1574.492,2262.781,1574.732,2260.941,1575.751,2260.326"/>
				<path id="path4443_20_" fill="#FFFFFF" d="M1617.119,2274.92c3.151-0.628,7.053-2.473,7.053-7.295
					c0-4.525-3.739-7.46-11.264-7.46l-2.893,0.02h-8.083v0.141c1.001,0.594,1.249,2.297,1.308,4.018v22.715
					c-0.052,1.771-0.292,3.588-1.308,4.167v0.141h8.083v-0.003l4.538-0.01c6.929,0,11.976-2.515,11.976-8.888
					C1626.53,2276.219,1620.099,2274.96,1617.119,2274.92 M1608.711,2264.623c0.007-0.195,0.017-0.39,0.027-0.589
					c0.764-0.042,1.462-0.121,2.236-0.121c5.797,0,7.628,1.394,7.628,4.254c0,4.003-4.312,4.883-8.546,4.883
					c-0.416,0-0.509,0-1.345-0.071V2264.623L1608.711,2264.623z M1613.373,2287.344c-1.786,0-2.952-0.084-4.662-0.359v-9.792
					c0.62-0.074,1.301-0.113,1.869-0.113c5.49,0,10.109,0.551,10.109,5.386C1620.69,2285.393,1618.905,2287.344,1613.373,2287.344"
					/>
				<path id="path4445_20_" fill="#FFFFFF" d="M1666.111,2269.493l-0.007,0.144c0.754,0.591,0.334,2.273-0.302,3.979l-4.459,11
					l-6.121-15.124h-6.716v0.144c1.242,0.594,2.178,2.297,2.928,4.02l5.427,13.402c1.466,3.391,5.601,4.308,5.601,4.308h0.244
					l8.856-21.874H1666.111L1666.111,2269.493z"/>
				<path id="path4447_20_" fill="#FFFFFF" d="M1599.112,2287.03l0.01-10.239c-0.059-1.645-0.292-3.338-1.167-4.583
					c-1.504-2.219-4.528-3.254-7.169-3.254c-2.98,0-4.253,0.141-6.451,2.042l-0.024,0.033l0.003-1.518h-6.805v0.146
					c0.997,0.591,1.249,2.292,1.305,4.013v13.388c-0.052,1.771-0.289,3.588-1.305,4.17v0.138h8.078v-0.138
					c-1.011-0.615-1.252-2.431-1.298-4.197l0.013-10.061c0.161-2.287,1.387-4.486,4.404-4.486c3.732,0,4.886,1.914,4.933,6.514
					v8.059c-0.049,1.771-0.289,3.588-1.305,4.17v0.138h8.081v-0.138C1599.401,2290.613,1599.159,2288.796,1599.112,2287.03"/>
				<path id="path4451_20_" fill="#FFFFFF" d="M1554.262,2274.92c3.158-0.628,7.06-2.473,7.06-7.295c0-4.525-3.739-7.46-11.267-7.46
					l-2.893,0.02h-8.081v0.141c1.001,0.594,1.246,2.297,1.298,4.018v8.905c-3.158,0.097-6.056,0.484-8.69,1.074l-5.729-14.137h-7.09
					l0.007,0.141c0.757,0.594,0.317,2.297-0.321,4.018l-9.201,22.715c-0.771,1.771-1.745,3.588-2.997,4.167v0.141h6.723
					c0.099-0.178,2.06-3.506,6.536-6.901c2.263-1.712,5.158-3.418,8.801-4.711l2.962,7.303c0.665,1.771,1.157,3.588,0.381,4.167
					l-0.003,0.141h6.833l-5.25-12.973c2.144-0.437,4.483-0.725,7.04-0.814v9.479c-0.042,1.771-0.289,3.588-1.298,4.167v0.141h8.081
					v-0.003l4.535-0.01c6.939,0,11.979-2.515,11.979-8.888C1563.677,2276.219,1557.25,2274.96,1554.262,2274.92 M1517.388,2280.726
					l5.712-14.096l3.692,9.11C1522.986,2277.113,1519.87,2278.901,1517.388,2280.726 M1545.859,2264.623
					c0.003-0.195,0.01-0.39,0.027-0.589c0.764-0.042,1.466-0.121,2.233-0.121c5.801,0,7.631,1.394,7.631,4.254
					c0,4.008-4.315,4.883-8.542,4.883c-0.416,0-0.512,0-1.348-0.071V2264.623z M1550.521,2287.344c-1.785,0-2.952-0.084-4.662-0.359
					v-9.792c0.623-0.074,1.301-0.113,1.872-0.113c5.492,0,10.109,0.551,10.109,5.386
					C1557.84,2285.393,1556.053,2287.344,1550.521,2287.344"/>
			</g>
		</g>
	</g>
</g>
<rect id="XMLID_449_" x="1905.122" y="660.853" fill="#6058C3" width="928" height="932"/>
<g id="XMLID_410_">
	<g id="XMLID_439_">
		<path id="XMLID_448_" fill="#33D5BA" d="M2292.153,1127.229c23.724-17.007,39.263-44.741,39.263-76.093h-29.725
			c0,29.703-20.391,54.665-47.889,61.81V996h-29.724v213.036h29.724v-63.401c32.023,3.446,57.046,30.62,57.046,63.544h29.724
			C2340.573,1173.939,2320.99,1143.21,2292.153,1127.229z"/>
		<rect id="XMLID_447_" x="2363.859" y="996" fill="#33D5BA" width="29.725" height="213.036"/>
		<path id="XMLID_446_" fill="#33D5BA" d="M2566.62,1092.646l-22.693,22.695c1.432,4.66,2.203,9.633,2.203,14.82
			c0,27.56-21.697,49.152-49.393,49.152c-27.699,0-49.396-21.591-49.396-49.152s21.696-49.152,49.396-49.152
			c5.123,0,10.037,0.747,14.65,2.126l22.751-22.753c-11.081-5.806-23.78-9.098-37.401-9.098c-44.368,0-79.12,34.647-79.12,78.876
			s34.752,78.876,79.12,78.876c44.365,0,79.118-34.647,79.118-78.876C2575.854,1116.49,2572.517,1103.745,2566.62,1092.646z"/>
		<path id="XMLID_445_" fill="#33D5BA" d="M2490.526,1123.391c-3.477,3.452-3.497,9.069-0.045,12.546l0,0
			c3.452,3.477,9.069,3.497,12.546,0.045l59.431-59.003l-12.501-12.591l-0.023,0.022L2490.526,1123.391z"/>
		<g id="XMLID_443_">
			<path id="XMLID_444_" fill="#33D5BA" d="M2646.11,1110.959c-5.081-1.802-22.469-7.473-21.861-17.732
				c0.487-8.224,11.205-12.935,21.342-11.791c12.005,1.355,17.498,7.755,17.607,7.92l20.73-20.553
				c-8.017-9.412-21.158-16.083-35.113-17.572c-26.972-2.879-52.181,14.514-54.771,38.771c-1.305,12.226,2.63,33.443,40.871,47.817
				c26.377,9.915,28.308,18.03,27.723,23.505c-1.123,10.524-13.627,17.895-27.361,16.711c-16.17-1.395-26.148-15.864-26.148-15.864
				l-20.117,19.971c8.675,13.869,24.267,24.093,43.041,26.097c30.6,3.267,57.87-16.332,60.791-43.689
				C2695.45,1140.138,2679.728,1122.876,2646.11,1110.959z"/>
		</g>
		<path id="XMLID_440_" fill="#33D5BA" d="M2120.583,1051.136c-43.574,0-79.022,35.448-79.022,79.024
			c0,43.572,35.448,79.019,79.022,79.019c21.661,0,41.86-8.584,56.888-24.177l0.002,0.002c0.017-0.018,0.033-0.036,0.05-0.054
			c0.005-0.005,0.009-0.009,0.014-0.014l0,0c4.716-4.901,8.709-10.3,11.963-16.065h-38.395
			c-8.653,6.859-19.269,10.584-30.522,10.584c-22.005,0-40.688-14.491-47.008-34.433h124.576c0.919-4.82,1.454-9.776,1.454-14.865
			h0.002C2199.606,1086.583,2164.156,1051.136,2120.583,1051.136z M2073.575,1115.298c6.318-19.946,25.003-34.437,47.008-34.437
			c22.007,0,40.692,14.491,47.01,34.437H2073.575z"/>
	</g>
	<g id="XMLID_411_">
		<g id="XMLID_433_">
			<path id="XMLID_436_" fill="#FFFFFF" d="M2487.905,1233.184h2.741v8.348c0.619-0.802,1.357-1.416,2.218-1.839
				c0.859-0.423,1.792-0.634,2.798-0.634c2.097,0,3.798,0.718,5.103,2.151c1.305,1.436,1.958,3.553,1.958,6.352
				c0,2.654-0.646,4.858-1.934,6.61c-1.29,1.755-3.077,2.634-5.362,2.634c-1.28,0-2.359-0.309-3.24-0.926
				c-0.523-0.366-1.085-0.95-1.683-1.755v2.147h-2.6V1233.184z M2498.685,1252.497c0.76-1.211,1.139-2.808,1.139-4.795
				c0-1.761-0.379-3.224-1.139-4.385c-0.76-1.158-1.877-1.738-3.355-1.738c-1.288,0-2.417,0.476-3.387,1.426
				c-0.968,0.95-1.453,2.516-1.453,4.697c0,1.577,0.198,2.859,0.597,3.839c0.743,1.849,2.132,2.771,4.164,2.771
				C2496.781,1254.312,2497.925,1253.709,2498.685,1252.497z"/>
			<path id="XMLID_434_" fill="#FFFFFF" d="M2516.467,1239.496h3.117c-0.396,1.077-1.278,3.533-2.647,7.365
				c-1.023,2.885-1.879,5.234-2.569,7.053c-1.627,4.278-2.775,6.888-3.442,7.828c-0.668,0.936-1.815,1.406-3.443,1.406
				c-0.396,0-0.701-0.013-0.916-0.047c-0.213-0.03-0.478-0.087-0.79-0.171v-2.57c0.49,0.138,0.844,0.221,1.063,0.252
				c0.218,0.03,0.411,0.047,0.579,0.047c0.52,0,0.904-0.087,1.149-0.258s0.451-0.383,0.617-0.631
				c0.052-0.084,0.24-0.513,0.562-1.282c0.324-0.772,0.559-1.346,0.705-1.721l-6.202-17.27h3.194l4.496,13.666L2516.467,1239.496z"
				/>
		</g>
		<g id="XMLID_412_">
			<g id="XMLID_414_">
				<path id="path4439_13_" fill="#FFFFFF" d="M2654.741,1253.021h17.563c0.19-6.981-4.26-12.068-10.776-12.068
					c-7.132,0-11.973,4.825-11.973,11.464c0,6.642,4.861,11.723,13.26,11.749c4.159,0.013,6.768-1.407,8.763-2.686l0.003-4.092
					c0,0-4.362,2.424-8.625,2.283C2659.221,1259.546,2654.837,1258.031,2654.741,1253.021 M2661.477,1245.031
					c3.115,0,5.772,2.685,5.772,4.28h-12.265C2654.985,1247.511,2657.411,1245.031,2661.477,1245.031"/>
				<path id="path4441_13_" fill="#FFFFFF" d="M2597.312,1232.326v-0.141h-8.083v0.141c1.001,0.594,1.252,2.297,1.308,4.016v22.713
					c-0.049,1.773-0.292,3.59-1.308,4.171v0.141h8.083v-0.141c-1.019-0.611-1.259-2.431-1.308-4.194v-22.473
					C2596.053,1234.781,2596.293,1232.941,2597.312,1232.326"/>
				<path id="path4443_13_" fill="#FFFFFF" d="M2638.68,1246.92c3.151-0.628,7.053-2.473,7.053-7.295
					c0-4.525-3.739-7.46-11.264-7.46l-2.893,0.02h-8.083v0.141c1.001,0.594,1.249,2.297,1.308,4.018v22.715
					c-0.052,1.771-0.292,3.588-1.308,4.167v0.141h8.083v-0.003l4.538-0.01c6.929,0,11.976-2.515,11.976-8.888
					C2648.091,1248.219,2641.66,1246.96,2638.68,1246.92 M2630.272,1236.623c0.007-0.195,0.017-0.39,0.027-0.589
					c0.764-0.042,1.462-0.121,2.236-0.121c5.797,0,7.627,1.394,7.627,4.255c0,4.003-4.312,4.882-8.546,4.882
					c-0.416,0-0.509,0-1.345-0.07V1236.623L2630.272,1236.623z M2634.934,1259.344c-1.786,0-2.952-0.084-4.662-0.359v-9.792
					c0.619-0.074,1.301-0.112,1.869-0.112c5.49,0,10.109,0.551,10.109,5.386C2642.251,1257.393,2640.467,1259.344,2634.934,1259.344
					"/>
				<path id="path4445_13_" fill="#FFFFFF" d="M2687.672,1241.493l-0.007,0.144c0.754,0.591,0.334,2.273-0.302,3.979l-4.459,11.001
					l-6.122-15.124h-6.716v0.144c1.242,0.594,2.178,2.297,2.928,4.019l5.426,13.401c1.466,3.392,5.601,4.308,5.601,4.308h0.243
					l8.857-21.874H2687.672L2687.672,1241.493z"/>
				<path id="path4447_13_" fill="#FFFFFF" d="M2620.673,1259.03l0.01-10.238c-0.059-1.645-0.292-3.338-1.167-4.584
					c-1.504-2.22-4.528-3.254-7.169-3.254c-2.98,0-4.253,0.141-6.45,2.042l-0.024,0.034l0.003-1.518h-6.805v0.146
					c0.997,0.591,1.249,2.292,1.305,4.013v13.388c-0.052,1.771-0.289,3.588-1.305,4.171v0.138h8.078v-0.138
					c-1.011-0.615-1.252-2.431-1.298-4.197l0.013-10.06c0.161-2.287,1.387-4.486,4.404-4.486c3.732,0,4.886,1.914,4.933,6.514v8.059
					c-0.049,1.771-0.289,3.588-1.304,4.171v0.138h8.081v-0.138C2620.962,1262.613,2620.72,1260.797,2620.673,1259.03"/>
				<path id="path4451_13_" fill="#FFFFFF" d="M2575.823,1246.92c3.158-0.628,7.06-2.473,7.06-7.295c0-4.525-3.739-7.46-11.268-7.46
					l-2.893,0.02h-8.081v0.141c1,0.594,1.246,2.297,1.298,4.018v8.905c-3.158,0.097-6.056,0.484-8.69,1.075l-5.729-14.137h-7.09
					l0.007,0.141c0.757,0.594,0.317,2.297-0.321,4.018l-9.201,22.715c-0.771,1.771-1.744,3.588-2.997,4.167v0.141h6.723
					c0.099-0.178,2.06-3.506,6.536-6.901c2.263-1.713,5.158-3.418,8.801-4.711l2.962,7.303c0.665,1.771,1.157,3.588,0.381,4.167
					l-0.003,0.141h6.833l-5.25-12.973c2.144-0.437,4.483-0.725,7.04-0.814v9.479c-0.042,1.771-0.289,3.588-1.298,4.167v0.141h8.081
					v-0.003l4.535-0.01c6.939,0,11.979-2.515,11.979-8.888C2585.239,1248.219,2578.812,1246.96,2575.823,1246.92 M2538.949,1252.726
					l5.712-14.097l3.692,9.11C2544.547,1249.113,2541.431,1250.901,2538.949,1252.726 M2567.42,1236.623
					c0.003-0.195,0.01-0.39,0.027-0.589c0.764-0.042,1.466-0.121,2.233-0.121c5.801,0,7.631,1.394,7.631,4.255
					c0,4.008-4.315,4.882-8.542,4.882c-0.417,0-0.512,0-1.348-0.07V1236.623z M2572.082,1259.344c-1.785,0-2.952-0.084-4.663-0.359
					v-9.792c0.623-0.074,1.301-0.112,1.872-0.112c5.492,0,10.109,0.551,10.109,5.386
					C2579.401,1257.393,2577.615,1259.344,2572.082,1259.344"/>
			</g>
		</g>
	</g>
</g>
<rect id="XMLID_646_" x="2947.09" y="660.853" fill="#33D5BA" width="928" height="932"/>
<g id="XMLID_607_">
	<g id="XMLID_636_">
		<path id="XMLID_645_" fill="#6058C3" d="M3334.121,1127.229c23.724-17.007,39.263-44.741,39.263-76.093h-29.725
			c0,29.703-20.391,54.665-47.889,61.81V996h-29.725v213.036h29.725v-63.401c32.023,3.446,57.046,30.62,57.046,63.544h29.725
			C3382.541,1173.939,3362.958,1143.21,3334.121,1127.229z"/>
		<rect id="XMLID_644_" x="3405.827" y="996" fill="#6058C3" width="29.725" height="213.036"/>
		<path id="XMLID_643_" fill="#6058C3" d="M3608.588,1092.646l-22.693,22.695c1.432,4.66,2.203,9.633,2.203,14.82
			c0,27.56-21.697,49.152-49.393,49.152c-27.699,0-49.396-21.591-49.396-49.152s21.697-49.152,49.396-49.152
			c5.123,0,10.037,0.747,14.65,2.126l22.751-22.753c-11.081-5.806-23.78-9.098-37.401-9.098c-44.368,0-79.12,34.647-79.12,78.876
			s34.752,78.876,79.12,78.876c44.365,0,79.118-34.647,79.118-78.876C3617.822,1116.49,3614.485,1103.745,3608.588,1092.646z"/>
		<path id="XMLID_642_" fill="#6058C3" d="M3532.494,1123.391c-3.477,3.452-3.497,9.069-0.045,12.546l0,0
			c3.452,3.477,9.069,3.497,12.546,0.045l59.431-59.003l-12.501-12.591l-0.023,0.022L3532.494,1123.391z"/>
		<g id="XMLID_640_">
			<path id="XMLID_641_" fill="#6058C3" d="M3688.078,1110.959c-5.081-1.802-22.469-7.473-21.861-17.732
				c0.487-8.224,11.205-12.935,21.342-11.791c12.005,1.355,17.498,7.755,17.607,7.92l20.73-20.553
				c-8.017-9.412-21.158-16.083-35.113-17.572c-26.972-2.879-52.182,14.514-54.771,38.771c-1.305,12.226,2.63,33.443,40.871,47.817
				c26.377,9.915,28.308,18.03,27.723,23.505c-1.124,10.524-13.627,17.895-27.361,16.711c-16.17-1.395-26.148-15.864-26.148-15.864
				l-20.117,19.971c8.675,13.869,24.267,24.093,43.041,26.097c30.6,3.267,57.87-16.332,60.791-43.689
				C3737.419,1140.138,3721.696,1122.876,3688.078,1110.959z"/>
		</g>
		<path id="XMLID_637_" fill="#6058C3" d="M3162.551,1051.136c-43.574,0-79.022,35.448-79.022,79.024
			c0,43.572,35.448,79.019,79.022,79.019c21.661,0,41.86-8.584,56.888-24.177l0.003,0.002c0.017-0.018,0.033-0.036,0.05-0.054
			c0.004-0.005,0.009-0.009,0.014-0.014l0,0c4.716-4.901,8.709-10.3,11.963-16.065h-38.395
			c-8.653,6.859-19.269,10.584-30.522,10.584c-22.005,0-40.688-14.491-47.008-34.433h124.576c0.919-4.82,1.454-9.776,1.454-14.865
			h0.002C3241.574,1086.583,3206.124,1051.136,3162.551,1051.136z M3115.543,1115.298c6.318-19.946,25.003-34.437,47.008-34.437
			c22.007,0,40.692,14.491,47.01,34.437H3115.543z"/>
	</g>
	<g id="XMLID_608_">
		<g id="XMLID_630_">
			<path id="XMLID_633_" fill="#FFFFFF" d="M3529.873,1233.184h2.741v8.348c0.619-0.802,1.357-1.416,2.218-1.839
				c0.859-0.423,1.792-0.634,2.798-0.634c2.097,0,3.798,0.718,5.104,2.151c1.305,1.436,1.958,3.553,1.958,6.352
				c0,2.654-0.646,4.858-1.934,6.61c-1.29,1.755-3.077,2.634-5.362,2.634c-1.28,0-2.359-0.309-3.24-0.926
				c-0.523-0.366-1.085-0.95-1.683-1.755v2.147h-2.6V1233.184z M3540.654,1252.497c0.76-1.211,1.139-2.808,1.139-4.795
				c0-1.761-0.379-3.224-1.139-4.385c-0.76-1.158-1.877-1.738-3.355-1.738c-1.288,0-2.417,0.476-3.387,1.426
				c-0.968,0.95-1.453,2.516-1.453,4.697c0,1.577,0.198,2.859,0.597,3.839c0.743,1.849,2.132,2.771,4.164,2.771
				C3538.749,1254.312,3539.894,1253.709,3540.654,1252.497z"/>
			<path id="XMLID_631_" fill="#FFFFFF" d="M3558.435,1239.496h3.117c-0.396,1.077-1.279,3.533-2.647,7.365
				c-1.023,2.885-1.879,5.234-2.568,7.053c-1.627,4.278-2.775,6.888-3.443,7.828c-0.668,0.936-1.815,1.406-3.442,1.406
				c-0.396,0-0.701-0.013-0.916-0.047c-0.213-0.03-0.478-0.087-0.79-0.171v-2.57c0.49,0.138,0.844,0.221,1.064,0.252
				c0.218,0.03,0.411,0.047,0.579,0.047c0.52,0,0.904-0.087,1.149-0.258c0.245-0.171,0.451-0.383,0.617-0.631
				c0.052-0.084,0.24-0.513,0.562-1.282c0.324-0.772,0.559-1.346,0.705-1.721l-6.202-17.27h3.194l4.496,13.666L3558.435,1239.496z"
				/>
		</g>
		<g id="XMLID_609_">
			<g id="XMLID_611_">
				<path id="path4439_16_" fill="#FFFFFF" d="M3696.709,1253.021h17.564c0.19-6.981-4.26-12.068-10.776-12.068
					c-7.132,0-11.973,4.825-11.973,11.464c0,6.642,4.861,11.723,13.26,11.749c4.159,0.013,6.768-1.407,8.762-2.686l0.003-4.092
					c0,0-4.362,2.424-8.625,2.283C3701.189,1259.546,3696.805,1258.031,3696.709,1253.021 M3703.445,1245.031
					c3.115,0,5.772,2.685,5.772,4.28h-12.265C3696.953,1247.511,3699.379,1245.031,3703.445,1245.031"/>
				<path id="path4441_16_" fill="#FFFFFF" d="M3639.28,1232.326v-0.141h-8.083v0.141c1,0.594,1.252,2.297,1.308,4.016v22.713
					c-0.049,1.773-0.292,3.59-1.308,4.171v0.141h8.083v-0.141c-1.019-0.611-1.259-2.431-1.308-4.194v-22.473
					C3638.021,1234.781,3638.261,1232.941,3639.28,1232.326"/>
				<path id="path4443_16_" fill="#FFFFFF" d="M3680.648,1246.92c3.151-0.628,7.053-2.473,7.053-7.295
					c0-4.525-3.739-7.46-11.264-7.46l-2.893,0.02h-8.083v0.141c1.001,0.594,1.249,2.297,1.308,4.018v22.715
					c-0.052,1.771-0.292,3.588-1.308,4.167v0.141h8.083v-0.003l4.538-0.01c6.929,0,11.976-2.515,11.976-8.888
					C3690.059,1248.219,3683.628,1246.96,3680.648,1246.92 M3672.24,1236.623c0.007-0.195,0.017-0.39,0.027-0.589
					c0.764-0.042,1.462-0.121,2.236-0.121c5.798,0,7.628,1.394,7.628,4.255c0,4.003-4.312,4.882-8.546,4.882
					c-0.417,0-0.509,0-1.345-0.07V1236.623L3672.24,1236.623z M3676.903,1259.344c-1.787,0-2.952-0.084-4.663-0.359v-9.792
					c0.62-0.074,1.301-0.112,1.869-0.112c5.49,0,10.109,0.551,10.109,5.386C3684.219,1257.393,3682.435,1259.344,3676.903,1259.344"
					/>
				<path id="path4445_16_" fill="#FFFFFF" d="M3729.64,1241.493l-0.007,0.144c0.754,0.591,0.334,2.273-0.302,3.979l-4.459,11.001
					l-6.122-15.124h-6.716v0.144c1.242,0.594,2.177,2.297,2.928,4.019l5.427,13.401c1.466,3.392,5.601,4.308,5.601,4.308h0.243
					l8.856-21.874H3729.64L3729.64,1241.493z"/>
				<path id="path4447_16_" fill="#FFFFFF" d="M3662.641,1259.03l0.01-10.238c-0.059-1.645-0.292-3.338-1.167-4.584
					c-1.504-2.22-4.528-3.254-7.169-3.254c-2.98,0-4.253,0.141-6.451,2.042l-0.023,0.034l0.003-1.518h-6.805v0.146
					c0.997,0.591,1.249,2.292,1.304,4.013v13.388c-0.052,1.771-0.289,3.588-1.304,4.171v0.138h8.077v-0.138
					c-1.011-0.615-1.252-2.431-1.298-4.197l0.013-10.06c0.161-2.287,1.387-4.486,4.404-4.486c3.732,0,4.886,1.914,4.933,6.514v8.059
					c-0.049,1.771-0.289,3.588-1.305,4.171v0.138h8.081v-0.138C3662.93,1262.613,3662.688,1260.797,3662.641,1259.03"/>
				<path id="path4451_16_" fill="#FFFFFF" d="M3617.791,1246.92c3.158-0.628,7.06-2.473,7.06-7.295c0-4.525-3.739-7.46-11.267-7.46
					l-2.893,0.02h-8.081v0.141c1.001,0.594,1.246,2.297,1.298,4.018v8.905c-3.158,0.097-6.056,0.484-8.69,1.075l-5.729-14.137h-7.09
					l0.007,0.141c0.757,0.594,0.317,2.297-0.321,4.018l-9.201,22.715c-0.771,1.771-1.744,3.588-2.997,4.167v0.141h6.723
					c0.099-0.178,2.06-3.506,6.536-6.901c2.263-1.713,5.158-3.418,8.801-4.711l2.962,7.303c0.665,1.771,1.157,3.588,0.381,4.167
					l-0.003,0.141h6.833l-5.25-12.973c2.144-0.437,4.483-0.725,7.04-0.814v9.479c-0.042,1.771-0.289,3.588-1.298,4.167v0.141h8.081
					v-0.003l4.535-0.01c6.939,0,11.979-2.515,11.979-8.888C3627.207,1248.219,3620.78,1246.96,3617.791,1246.92 M3580.918,1252.726
					l5.712-14.097l3.692,9.11C3586.515,1249.113,3583.399,1250.901,3580.918,1252.726 M3609.388,1236.623
					c0.003-0.195,0.01-0.39,0.027-0.589c0.764-0.042,1.466-0.121,2.233-0.121c5.801,0,7.631,1.394,7.631,4.255
					c0,4.008-4.315,4.882-8.542,4.882c-0.416,0-0.512,0-1.348-0.07V1236.623z M3614.05,1259.344c-1.785,0-2.952-0.084-4.662-0.359
					v-9.792c0.623-0.074,1.301-0.112,1.872-0.112c5.492,0,10.109,0.551,10.109,5.386
					C3621.369,1257.393,3619.583,1259.344,3614.05,1259.344"/>
			</g>
		</g>
	</g>
</g>
<rect id="XMLID_213_" x="1905.122" y="-335.147" fill="#33D5BA" width="928" height="932"/>
<g id="XMLID_164_">
	<g id="XMLID_203_">
		<path id="XMLID_212_" fill="#FFFFFF" d="M2292.153,131.229c23.724-17.007,39.263-44.741,39.263-76.093h-29.725
			c0,29.703-20.391,54.665-47.889,61.81V0h-29.725v213.036h29.725v-63.401c32.023,3.446,57.046,30.62,57.046,63.544h29.725
			C2340.573,177.939,2320.99,147.21,2292.153,131.229z"/>
		<rect id="XMLID_211_" x="2363.859" y="0" fill="#FFFFFF" width="29.725" height="213.036"/>
		<path id="XMLID_210_" fill="#FFFFFF" d="M2566.62,96.646l-22.693,22.695c1.432,4.66,2.203,9.633,2.203,14.82
			c0,27.56-21.697,49.152-49.393,49.152c-27.699,0-49.396-21.591-49.396-49.152s21.697-49.152,49.396-49.152
			c5.123,0,10.037,0.747,14.65,2.126l22.751-22.753c-11.081-5.806-23.78-9.098-37.401-9.098c-44.368,0-79.12,34.647-79.12,78.876
			s34.752,78.876,79.12,78.876c44.365,0,79.118-34.647,79.118-78.876C2575.854,120.49,2572.517,107.745,2566.62,96.646z"/>
		<path id="XMLID_209_" fill="#FFFFFF" d="M2490.526,127.391c-3.477,3.452-3.497,9.069-0.045,12.546v0
			c3.452,3.477,9.069,3.497,12.546,0.045l59.431-59.003l-12.501-12.591l-0.023,0.022L2490.526,127.391z"/>
		<g id="XMLID_207_">
			<path id="XMLID_208_" fill="#FFFFFF" d="M2646.11,114.959c-5.081-1.802-22.469-7.473-21.861-17.732
				c0.487-8.224,11.205-12.935,21.342-11.791c12.005,1.355,17.498,7.755,17.607,7.92l20.73-20.553
				c-8.017-9.412-21.158-16.083-35.113-17.572c-26.972-2.879-52.181,14.514-54.771,38.771c-1.305,12.226,2.63,33.443,40.871,47.817
				c26.377,9.915,28.308,18.03,27.723,23.505c-1.123,10.524-13.627,17.895-27.361,16.711c-16.17-1.395-26.148-15.864-26.148-15.864
				l-20.117,19.971c8.675,13.869,24.267,24.093,43.041,26.097c30.6,3.267,57.87-16.332,60.791-43.689
				C2695.45,144.138,2679.728,126.876,2646.11,114.959z"/>
		</g>
		<path id="XMLID_204_" fill="#FFFFFF" d="M2120.583,55.136c-43.574,0-79.022,35.448-79.022,79.024
			c0,43.572,35.448,79.019,79.022,79.019c21.661,0,41.861-8.584,56.888-24.177l0.002,0.002c0.017-0.018,0.033-0.036,0.05-0.054
			c0.005-0.005,0.009-0.009,0.014-0.014l0-0.001c4.716-4.901,8.709-10.3,11.963-16.065h-38.395
			c-8.653,6.859-19.269,10.584-30.522,10.584c-22.005,0-40.688-14.491-47.008-34.433h124.576c0.919-4.82,1.454-9.776,1.454-14.865
			h0.002C2199.606,90.583,2164.156,55.136,2120.583,55.136z M2073.575,119.298c6.318-19.946,25.003-34.437,47.008-34.437
			c22.007,0,40.692,14.491,47.01,34.437H2073.575z"/>
	</g>
	<g id="XMLID_165_">
		<g id="XMLID_197_">
			<path id="XMLID_200_" fill="#FFFFFF" d="M2487.905,237.184h2.741v8.348c0.619-0.802,1.357-1.416,2.218-1.839
				c0.859-0.423,1.792-0.634,2.798-0.634c2.097,0,3.798,0.718,5.104,2.151c1.305,1.436,1.958,3.553,1.958,6.352
				c0,2.654-0.646,4.858-1.934,6.61c-1.29,1.755-3.077,2.634-5.362,2.634c-1.28,0-2.359-0.309-3.24-0.926
				c-0.523-0.366-1.085-0.95-1.683-1.755v2.147h-2.6V237.184z M2498.685,256.497c0.76-1.211,1.139-2.808,1.139-4.795
				c0-1.762-0.379-3.224-1.139-4.385c-0.76-1.158-1.877-1.738-3.355-1.738c-1.289,0-2.417,0.476-3.387,1.426
				c-0.968,0.95-1.453,2.516-1.453,4.697c0,1.577,0.198,2.859,0.597,3.838c0.743,1.849,2.132,2.771,4.164,2.771
				C2496.781,258.313,2497.925,257.709,2498.685,256.497z"/>
			<path id="XMLID_198_" fill="#FFFFFF" d="M2516.467,243.496h3.117c-0.396,1.077-1.278,3.533-2.647,7.365
				c-1.023,2.886-1.879,5.234-2.568,7.053c-1.627,4.278-2.775,6.888-3.443,7.828c-0.667,0.936-1.815,1.406-3.442,1.406
				c-0.396,0-0.701-0.013-0.916-0.047c-0.213-0.03-0.478-0.087-0.79-0.171v-2.57c0.49,0.138,0.844,0.221,1.064,0.252
				c0.218,0.03,0.411,0.047,0.579,0.047c0.52,0,0.904-0.087,1.149-0.258c0.245-0.171,0.451-0.382,0.617-0.631
				c0.052-0.084,0.24-0.513,0.562-1.282c0.324-0.772,0.559-1.345,0.705-1.721l-6.202-17.27h3.194l4.496,13.666L2516.467,243.496z"/>
		</g>
		<g id="XMLID_166_">
			<g id="XMLID_168_">
				<path id="path4439_4_" fill="#FFFFFF" d="M2654.741,257.021h17.564c0.19-6.981-4.26-12.068-10.776-12.068
					c-7.132,0-11.973,4.825-11.973,11.464c0,6.642,4.861,11.723,13.26,11.749c4.159,0.013,6.768-1.407,8.762-2.686l0.003-4.092
					c0,0-4.362,2.424-8.625,2.283C2659.22,263.546,2654.837,262.031,2654.741,257.021 M2661.477,249.031
					c3.115,0,5.772,2.685,5.772,4.28h-12.265C2654.985,251.511,2657.411,249.031,2661.477,249.031"/>
				<path id="path4441_4_" fill="#FFFFFF" d="M2597.312,236.326v-0.141h-8.083v0.141c1.001,0.594,1.252,2.297,1.308,4.016v22.713
					c-0.049,1.773-0.292,3.59-1.308,4.171v0.141h8.083v-0.141c-1.019-0.611-1.259-2.431-1.308-4.194v-22.473
					C2596.053,238.781,2596.293,236.941,2597.312,236.326"/>
				<path id="path4443_4_" fill="#FFFFFF" d="M2638.68,250.92c3.151-0.628,7.053-2.473,7.053-7.295c0-4.525-3.739-7.46-11.264-7.46
					l-2.893,0.02h-8.083v0.141c1,0.594,1.249,2.297,1.308,4.018v22.715c-0.052,1.771-0.292,3.588-1.308,4.167v0.141h8.083v-0.003
					l4.538-0.01c6.929,0,11.976-2.515,11.976-8.888C2648.091,252.219,2641.66,250.96,2638.68,250.92 M2630.272,240.623
					c0.007-0.195,0.017-0.39,0.027-0.589c0.764-0.042,1.462-0.121,2.237-0.121c5.797,0,7.627,1.394,7.627,4.255
					c0,4.003-4.312,4.882-8.546,4.882c-0.417,0-0.509,0-1.345-0.07V240.623L2630.272,240.623z M2634.934,263.344
					c-1.786,0-2.952-0.084-4.663-0.359v-9.792c0.62-0.074,1.301-0.113,1.869-0.113c5.49,0,10.109,0.551,10.109,5.386
					C2642.251,261.393,2640.467,263.344,2634.934,263.344"/>
				<path id="path4445_4_" fill="#FFFFFF" d="M2687.672,245.493l-0.007,0.144c0.754,0.591,0.334,2.273-0.302,3.979l-4.459,11.001
					l-6.122-15.124h-6.716v0.144c1.242,0.594,2.178,2.297,2.928,4.019l5.426,13.402c1.466,3.392,5.601,4.308,5.601,4.308h0.243
					l8.857-21.874H2687.672L2687.672,245.493z"/>
				<path id="path4447_4_" fill="#FFFFFF" d="M2620.673,263.03l0.01-10.238c-0.059-1.645-0.292-3.338-1.167-4.584
					c-1.504-2.22-4.528-3.254-7.169-3.254c-2.98,0-4.253,0.141-6.451,2.042l-0.023,0.034l0.003-1.518h-6.805v0.146
					c0.997,0.591,1.249,2.292,1.305,4.013v13.388c-0.052,1.771-0.289,3.588-1.305,4.171v0.138h8.078v-0.138
					c-1.011-0.615-1.253-2.431-1.298-4.197l0.013-10.06c0.161-2.287,1.387-4.486,4.404-4.486c3.732,0,4.886,1.914,4.933,6.514v8.059
					c-0.049,1.771-0.289,3.588-1.305,4.171v0.138h8.081v-0.138C2620.962,266.613,2620.72,264.796,2620.673,263.03"/>
				<path id="path4451_4_" fill="#FFFFFF" d="M2575.823,250.92c3.158-0.628,7.06-2.473,7.06-7.295c0-4.525-3.739-7.46-11.268-7.46
					l-2.893,0.02h-8.081v0.141c1.001,0.594,1.246,2.297,1.298,4.018v8.905c-3.158,0.097-6.056,0.484-8.69,1.075l-5.729-14.137h-7.09
					l0.007,0.141c0.757,0.594,0.317,2.297-0.321,4.018l-9.201,22.715c-0.771,1.771-1.744,3.588-2.997,4.167v0.141h6.722
					c0.099-0.178,2.06-3.506,6.536-6.901c2.263-1.713,5.158-3.418,8.801-4.711l2.962,7.303c0.665,1.771,1.157,3.588,0.381,4.167
					l-0.003,0.141h6.833l-5.25-12.973c2.144-0.437,4.483-0.725,7.04-0.814v9.479c-0.042,1.771-0.289,3.588-1.298,4.167v0.141h8.081
					v-0.003l4.535-0.01c6.939,0,11.979-2.515,11.979-8.888C2585.239,252.219,2578.812,250.96,2575.823,250.92 M2538.949,256.726
					l5.712-14.097l3.692,9.11C2544.547,253.113,2541.431,254.901,2538.949,256.726 M2567.42,240.623
					c0.003-0.195,0.01-0.39,0.027-0.589c0.764-0.042,1.466-0.121,2.233-0.121c5.801,0,7.631,1.394,7.631,4.255
					c0,4.008-4.315,4.882-8.543,4.882c-0.416,0-0.512,0-1.348-0.07V240.623z M2572.082,263.344c-1.785,0-2.952-0.084-4.663-0.359
					v-9.792c0.623-0.074,1.301-0.113,1.872-0.113c5.492,0,10.109,0.551,10.109,5.386
					C2579.401,261.393,2577.615,263.344,2572.082,263.344"/>
			</g>
		</g>
	</g>
</g>
<rect id="XMLID_886_" x="883.561" y="-335.147" fill="#FF4D3D" width="928" height="932"/>
<g id="XMLID_29_">
	<g id="XMLID_876_">
		<path id="XMLID_885_" fill="#FFFFFF" d="M1270.591,131.229c23.724-17.007,39.263-44.741,39.263-76.093h-29.724
			c0,29.703-20.391,54.665-47.889,61.81V0h-29.724v213.036h29.724v-63.401c32.023,3.446,57.046,30.62,57.046,63.544h29.724
			C1319.011,177.939,1299.429,147.21,1270.591,131.229z"/>
		<rect id="XMLID_884_" x="1342.297" y="0" fill="#FFFFFF" width="29.725" height="213.036"/>
		<path id="XMLID_883_" fill="#FFFFFF" d="M1545.059,96.646l-22.693,22.695c1.432,4.66,2.203,9.633,2.203,14.82
			c0,27.56-21.696,49.152-49.393,49.152c-27.699,0-49.396-21.591-49.396-49.152s21.696-49.152,49.396-49.152
			c5.123,0,10.037,0.747,14.65,2.126l22.751-22.753c-11.081-5.806-23.78-9.098-37.401-9.098c-44.368,0-79.12,34.647-79.12,78.876
			s34.752,78.876,79.12,78.876c44.365,0,79.118-34.647,79.118-78.876C1554.292,120.49,1550.956,107.745,1545.059,96.646z"/>
		<path id="XMLID_882_" fill="#FFFFFF" d="M1468.965,127.391c-3.477,3.452-3.497,9.069-0.045,12.546v0
			c3.452,3.477,9.069,3.497,12.546,0.045l59.431-59.003l-12.501-12.591l-0.023,0.022L1468.965,127.391z"/>
		<g id="XMLID_880_">
			<path id="XMLID_881_" fill="#FFFFFF" d="M1624.549,114.959c-5.081-1.802-22.469-7.473-21.861-17.732
				c0.487-8.224,11.205-12.935,21.342-11.791c12.005,1.355,17.498,7.755,17.607,7.92l20.73-20.553
				c-8.017-9.412-21.158-16.083-35.113-17.572c-26.972-2.879-52.182,14.514-54.771,38.771c-1.305,12.226,2.63,33.443,40.871,47.817
				c26.377,9.915,28.308,18.03,27.723,23.505c-1.123,10.524-13.627,17.895-27.361,16.711c-16.17-1.395-26.148-15.864-26.148-15.864
				l-20.117,19.971c8.675,13.869,24.267,24.093,43.041,26.097c30.6,3.267,57.87-16.332,60.791-43.689
				C1673.889,144.138,1658.166,126.876,1624.549,114.959z"/>
		</g>
		<path id="XMLID_877_" fill="#FFFFFF" d="M1099.022,55.136c-43.574,0-79.022,35.448-79.022,79.024
			c0,43.572,35.448,79.019,79.022,79.019c21.661,0,41.86-8.584,56.888-24.177l0.002,0.002c0.017-0.018,0.033-0.036,0.05-0.054
			c0.005-0.005,0.009-0.009,0.014-0.014l0-0.001c4.716-4.901,8.709-10.3,11.964-16.065h-38.395
			c-8.653,6.859-19.268,10.584-30.522,10.584c-22.005,0-40.688-14.491-47.008-34.433h124.576c0.919-4.82,1.454-9.776,1.454-14.865
			h0.002C1178.045,90.583,1142.595,55.136,1099.022,55.136z M1052.014,119.298c6.318-19.946,25.003-34.437,47.008-34.437
			c22.007,0,40.692,14.491,47.01,34.437H1052.014z"/>
	</g>
	<g id="XMLID_30_">
		<g id="XMLID_41_">
			<path id="XMLID_70_" fill="#FFFFFF" d="M1466.344,237.184h2.741v8.348c0.619-0.802,1.357-1.416,2.218-1.839
				c0.859-0.423,1.792-0.634,2.798-0.634c2.097,0,3.798,0.718,5.103,2.151c1.305,1.436,1.958,3.553,1.958,6.352
				c0,2.654-0.646,4.858-1.934,6.61c-1.29,1.755-3.077,2.634-5.362,2.634c-1.28,0-2.359-0.309-3.24-0.926
				c-0.523-0.366-1.085-0.95-1.683-1.755v2.147h-2.6V237.184z M1477.124,256.497c0.76-1.211,1.139-2.808,1.139-4.795
				c0-1.762-0.379-3.224-1.139-4.385c-0.76-1.158-1.877-1.738-3.355-1.738c-1.288,0-2.417,0.476-3.387,1.426
				c-0.968,0.95-1.453,2.516-1.453,4.697c0,1.577,0.198,2.859,0.597,3.838c0.743,1.849,2.132,2.771,4.164,2.771
				C1475.22,258.313,1476.364,257.709,1477.124,256.497z"/>
			<path id="XMLID_42_" fill="#FFFFFF" d="M1494.906,243.496h3.117c-0.396,1.077-1.278,3.533-2.647,7.365
				c-1.023,2.886-1.879,5.234-2.568,7.053c-1.627,4.278-2.775,6.888-3.443,7.828c-0.668,0.936-1.815,1.406-3.443,1.406
				c-0.396,0-0.701-0.013-0.916-0.047c-0.213-0.03-0.478-0.087-0.79-0.171v-2.57c0.49,0.138,0.844,0.221,1.064,0.252
				c0.218,0.03,0.411,0.047,0.579,0.047c0.52,0,0.904-0.087,1.149-0.258c0.245-0.171,0.451-0.382,0.617-0.631
				c0.052-0.084,0.24-0.513,0.562-1.282c0.324-0.772,0.559-1.345,0.705-1.721l-6.202-17.27h3.194l4.496,13.666L1494.906,243.496z"/>
		</g>
		<g id="XMLID_31_">
			<g id="XMLID_1246_">
				<path id="path4439_26_" fill="#FFFFFF" d="M1633.18,257.021h17.564c0.19-6.981-4.26-12.068-10.776-12.068
					c-7.132,0-11.973,4.825-11.973,11.464c0,6.642,4.861,11.723,13.26,11.749c4.159,0.013,6.768-1.407,8.763-2.686l0.003-4.092
					c0,0-4.362,2.424-8.625,2.283C1637.659,263.546,1633.276,262.031,1633.18,257.021 M1639.916,249.031
					c3.115,0,5.772,2.685,5.772,4.28h-12.265C1633.423,251.511,1635.849,249.031,1639.916,249.031"/>
				<path id="path4441_26_" fill="#FFFFFF" d="M1575.751,236.326v-0.141h-8.083v0.141c1.001,0.594,1.252,2.297,1.308,4.016v22.713
					c-0.049,1.773-0.292,3.59-1.308,4.171v0.141h8.083v-0.141c-1.019-0.611-1.259-2.431-1.308-4.194v-22.473
					C1574.492,238.781,1574.732,236.941,1575.751,236.326"/>
				<path id="path4443_26_" fill="#FFFFFF" d="M1617.119,250.92c3.151-0.628,7.053-2.473,7.053-7.295
					c0-4.525-3.739-7.46-11.264-7.46l-2.893,0.02h-8.083v0.141c1.001,0.594,1.249,2.297,1.308,4.018v22.715
					c-0.052,1.771-0.292,3.588-1.308,4.167v0.141h8.083v-0.003l4.538-0.01c6.929,0,11.976-2.515,11.976-8.888
					C1626.53,252.219,1620.099,250.96,1617.119,250.92 M1608.711,240.623c0.007-0.195,0.017-0.39,0.027-0.589
					c0.764-0.042,1.462-0.121,2.236-0.121c5.797,0,7.628,1.394,7.628,4.255c0,4.003-4.312,4.882-8.546,4.882
					c-0.416,0-0.509,0-1.345-0.07V240.623L1608.711,240.623z M1613.373,263.344c-1.786,0-2.952-0.084-4.662-0.359v-9.792
					c0.62-0.074,1.301-0.113,1.869-0.113c5.49,0,10.109,0.551,10.109,5.386C1620.69,261.393,1618.905,263.344,1613.373,263.344"/>
				<path id="path4445_26_" fill="#FFFFFF" d="M1666.111,245.493l-0.007,0.144c0.754,0.591,0.334,2.273-0.302,3.979l-4.459,11.001
					l-6.121-15.124h-6.716v0.144c1.242,0.594,2.178,2.297,2.928,4.019l5.427,13.402c1.466,3.392,5.601,4.308,5.601,4.308h0.244
					l8.856-21.874H1666.111L1666.111,245.493z"/>
				<path id="path4447_26_" fill="#FFFFFF" d="M1599.112,263.03l0.01-10.238c-0.059-1.645-0.292-3.338-1.167-4.584
					c-1.504-2.22-4.528-3.254-7.169-3.254c-2.98,0-4.253,0.141-6.451,2.042l-0.024,0.034l0.003-1.518h-6.805v0.146
					c0.997,0.591,1.249,2.292,1.305,4.013v13.388c-0.052,1.771-0.289,3.588-1.305,4.171v0.138h8.078v-0.138
					c-1.011-0.615-1.252-2.431-1.298-4.197l0.013-10.06c0.161-2.287,1.387-4.486,4.404-4.486c3.732,0,4.886,1.914,4.933,6.514v8.059
					c-0.049,1.771-0.289,3.588-1.305,4.171v0.138h8.081v-0.138C1599.401,266.613,1599.159,264.796,1599.112,263.03"/>
				<path id="path4451_26_" fill="#FFFFFF" d="M1554.262,250.92c3.158-0.628,7.06-2.473,7.06-7.295c0-4.525-3.739-7.46-11.267-7.46
					l-2.893,0.02h-8.081v0.141c1.001,0.594,1.246,2.297,1.298,4.018v8.905c-3.158,0.097-6.056,0.484-8.69,1.075l-5.729-14.137h-7.09
					l0.007,0.141c0.757,0.594,0.317,2.297-0.321,4.018l-9.201,22.715c-0.771,1.771-1.745,3.588-2.997,4.167v0.141h6.723
					c0.099-0.178,2.06-3.506,6.536-6.901c2.263-1.713,5.158-3.418,8.801-4.711l2.962,7.303c0.665,1.771,1.157,3.588,0.381,4.167
					l-0.003,0.141h6.833l-5.25-12.973c2.144-0.437,4.483-0.725,7.04-0.814v9.479c-0.042,1.771-0.289,3.588-1.298,4.167v0.141h8.081
					v-0.003l4.535-0.01c6.939,0,11.979-2.515,11.979-8.888C1563.677,252.219,1557.25,250.96,1554.262,250.92 M1517.388,256.726
					l5.712-14.097l3.692,9.11C1522.986,253.113,1519.87,254.901,1517.388,256.726 M1545.859,240.623
					c0.003-0.195,0.01-0.39,0.027-0.589c0.764-0.042,1.466-0.121,2.233-0.121c5.801,0,7.631,1.394,7.631,4.255
					c0,4.008-4.315,4.882-8.543,4.882c-0.416,0-0.512,0-1.348-0.07V240.623z M1550.521,263.344c-1.785,0-2.952-0.084-4.662-0.359
					v-9.792c0.623-0.074,1.301-0.113,1.872-0.113c5.492,0,10.109,0.551,10.109,5.386
					C1557.84,261.393,1556.053,263.344,1550.521,263.344"/>
			</g>
		</g>
	</g>
</g>
<g id="XMLID_216_">
	<g id="XMLID_931_">
		<path id="XMLID_940_" fill="#FF4D3D" d="M250.591,131.229c23.724-17.007,39.263-44.741,39.263-76.093H260.13
			c0,29.703-20.391,54.665-47.889,61.81V0h-29.725v213.036h29.725v-63.401c32.023,3.446,57.046,30.62,57.046,63.544h29.725
			C299.011,177.939,279.429,147.21,250.591,131.229z"/>
		<rect id="XMLID_939_" x="322.297" y="0" fill="#FF4D3D" width="29.725" height="213.036"/>
		<path id="XMLID_938_" fill="#FF4D3D" d="M525.059,96.646l-22.693,22.695c1.432,4.66,2.203,9.633,2.203,14.82
			c0,27.56-21.697,49.152-49.393,49.152c-27.699,0-49.396-21.591-49.396-49.152s21.696-49.152,49.396-49.152
			c5.123,0,10.037,0.747,14.65,2.126l22.751-22.753c-11.081-5.806-23.78-9.098-37.401-9.098c-44.368,0-79.12,34.647-79.12,78.876
			s34.752,78.876,79.12,78.876c44.365,0,79.118-34.647,79.118-78.876C534.292,120.49,530.956,107.745,525.059,96.646z"/>
		<path id="XMLID_937_" fill="#FF4D3D" d="M448.965,127.391c-3.477,3.452-3.497,9.069-0.045,12.546v0
			c3.452,3.477,9.069,3.497,12.546,0.045l59.431-59.003l-12.501-12.591l-0.023,0.022L448.965,127.391z"/>
		<g id="XMLID_935_">
			<path id="XMLID_936_" fill="#FF4D3D" d="M604.549,114.959c-5.081-1.802-22.469-7.473-21.861-17.732
				c0.487-8.224,11.205-12.935,21.342-11.791c12.005,1.355,17.498,7.755,17.607,7.92l20.73-20.553
				c-8.017-9.412-21.158-16.083-35.113-17.572c-26.972-2.879-52.182,14.514-54.771,38.771c-1.305,12.226,2.63,33.443,40.871,47.817
				c26.377,9.915,28.308,18.03,27.723,23.505c-1.123,10.524-13.627,17.895-27.361,16.711c-16.17-1.395-26.148-15.864-26.148-15.864
				l-20.117,19.971c8.675,13.869,24.267,24.093,43.041,26.097c30.6,3.267,57.87-16.332,60.791-43.689
				C653.889,144.138,638.166,126.876,604.549,114.959z"/>
		</g>
		<path id="XMLID_932_" fill="#FF4D3D" d="M79.022,55.136C35.448,55.136,0,90.584,0,134.16c0,43.572,35.448,79.019,79.022,79.019
			c21.661,0,41.86-8.584,56.888-24.177l0.003,0.002c0.017-0.018,0.033-0.036,0.05-0.054c0.005-0.005,0.009-0.009,0.014-0.014
			l-0.001-0.001c4.716-4.901,8.709-10.3,11.964-16.065h-38.395c-8.653,6.859-19.269,10.584-30.522,10.584
			c-22.005,0-40.688-14.491-47.008-34.433H156.59c0.919-4.82,1.454-9.776,1.454-14.865h0.002
			C158.045,90.583,122.595,55.136,79.022,55.136z M32.014,119.298c6.318-19.946,25.003-34.437,47.008-34.437
			c22.007,0,40.692,14.491,47.01,34.437H32.014z"/>
	</g>
	<g id="XMLID_217_">
		<g id="XMLID_364_">
			<path id="XMLID_928_" fill="#738087" d="M446.344,237.184h2.741v8.348c0.619-0.802,1.357-1.416,2.218-1.839
				c0.859-0.423,1.792-0.634,2.798-0.634c2.097,0,3.798,0.718,5.103,2.151c1.305,1.436,1.958,3.553,1.958,6.352
				c0,2.654-0.646,4.858-1.934,6.61c-1.29,1.755-3.077,2.634-5.362,2.634c-1.28,0-2.359-0.309-3.24-0.926
				c-0.523-0.366-1.085-0.95-1.683-1.755v2.147h-2.6V237.184z M457.124,256.497c0.76-1.211,1.139-2.808,1.139-4.795
				c0-1.762-0.379-3.224-1.139-4.385c-0.76-1.158-1.877-1.738-3.355-1.738c-1.288,0-2.418,0.476-3.387,1.426
				c-0.968,0.95-1.453,2.516-1.453,4.697c0,1.577,0.198,2.859,0.597,3.838c0.743,1.849,2.132,2.771,4.164,2.771
				C455.22,258.313,456.364,257.709,457.124,256.497z"/>
			<path id="XMLID_365_" fill="#738087" d="M474.905,243.496h3.117c-0.396,1.077-1.278,3.533-2.647,7.365
				c-1.023,2.886-1.879,5.234-2.568,7.053c-1.627,4.278-2.775,6.888-3.443,7.828c-0.668,0.936-1.815,1.406-3.443,1.406
				c-0.396,0-0.701-0.013-0.916-0.047c-0.213-0.03-0.478-0.087-0.79-0.171v-2.57c0.49,0.138,0.844,0.221,1.064,0.252
				c0.218,0.03,0.411,0.047,0.579,0.047c0.52,0,0.904-0.087,1.149-0.258c0.245-0.171,0.451-0.382,0.617-0.631
				c0.052-0.084,0.24-0.513,0.562-1.282c0.324-0.772,0.559-1.345,0.705-1.721l-6.202-17.27h3.194l4.496,13.666L474.905,243.496z"/>
		</g>
		<g id="XMLID_218_">
			<path id="path4439_1_" fill="#738087" d="M613.18,257.021h17.564c0.19-6.981-4.26-12.068-10.776-12.068
				c-7.132,0-11.973,4.825-11.973,11.464c0,6.642,4.861,11.723,13.26,11.749c4.159,0.013,6.768-1.407,8.763-2.686l0.003-4.092
				c0,0-4.362,2.424-8.625,2.283C617.659,263.546,613.276,262.031,613.18,257.021 M619.916,249.031c3.114,0,5.772,2.685,5.772,4.28
				h-12.265C613.423,251.511,615.849,249.031,619.916,249.031"/>
			<path id="path4441_1_" fill="#738087" d="M555.751,236.326v-0.141h-8.083v0.141c1.001,0.594,1.253,2.297,1.308,4.016v22.713
				c-0.049,1.773-0.292,3.59-1.308,4.171v0.141h8.083v-0.141c-1.019-0.611-1.259-2.431-1.308-4.194v-22.473
				C554.492,238.781,554.732,236.941,555.751,236.326"/>
			<path id="path4443_1_" fill="#738087" d="M597.119,250.92c3.151-0.628,7.053-2.473,7.053-7.295c0-4.525-3.739-7.46-11.264-7.46
				l-2.893,0.02h-8.083v0.141c1.001,0.594,1.249,2.297,1.308,4.018v22.715c-0.052,1.771-0.292,3.588-1.308,4.167v0.141h8.083v-0.003
				l4.538-0.01c6.929,0,11.976-2.515,11.976-8.888C606.53,252.219,600.099,250.96,597.119,250.92 M588.711,240.623
				c0.007-0.195,0.017-0.39,0.027-0.589c0.764-0.042,1.462-0.121,2.236-0.121c5.797,0,7.628,1.394,7.628,4.255
				c0,4.003-4.312,4.882-8.546,4.882c-0.416,0-0.509,0-1.345-0.07V240.623L588.711,240.623z M593.373,263.344
				c-1.786,0-2.952-0.084-4.663-0.359v-9.792c0.62-0.074,1.301-0.113,1.869-0.113c5.49,0,10.109,0.551,10.109,5.386
				C600.69,261.393,598.905,263.344,593.373,263.344"/>
			<path id="path4445_1_" fill="#738087" d="M646.111,245.493l-0.007,0.144c0.754,0.591,0.334,2.273-0.302,3.979l-4.459,11.001
				l-6.122-15.124h-6.716v0.144c1.242,0.594,2.178,2.297,2.928,4.019l5.426,13.402c1.466,3.392,5.601,4.308,5.601,4.308h0.243
				l8.857-21.874H646.111L646.111,245.493z"/>
			<path id="path4447_1_" fill="#738087" d="M579.112,263.03l0.01-10.238c-0.059-1.645-0.292-3.338-1.167-4.584
				c-1.504-2.22-4.528-3.254-7.169-3.254c-2.98,0-4.253,0.141-6.451,2.042l-0.024,0.034l0.003-1.518h-6.805v0.146
				c0.997,0.591,1.249,2.292,1.305,4.013v13.388c-0.052,1.771-0.289,3.588-1.305,4.171v0.138h8.078v-0.138
				c-1.011-0.615-1.253-2.431-1.298-4.197l0.013-10.06c0.161-2.287,1.387-4.486,4.404-4.486c3.732,0,4.886,1.914,4.933,6.514v8.059
				c-0.049,1.771-0.289,3.588-1.305,4.171v0.138h8.081v-0.138C579.401,266.613,579.159,264.796,579.112,263.03"/>
			<path id="path4451_1_" fill="#738087" d="M534.262,250.92c3.158-0.628,7.06-2.473,7.06-7.295c0-4.525-3.739-7.46-11.268-7.46
				l-2.893,0.02h-8.081v0.141c1.001,0.594,1.246,2.297,1.298,4.018v8.905c-3.158,0.097-6.056,0.484-8.69,1.075l-5.729-14.137h-7.09
				l0.007,0.141c0.757,0.594,0.317,2.297-0.321,4.018l-9.201,22.715c-0.771,1.771-1.744,3.588-2.997,4.167v0.141h6.723
				c0.099-0.178,2.06-3.506,6.536-6.901c2.263-1.713,5.158-3.418,8.801-4.711l2.962,7.303c0.665,1.771,1.157,3.588,0.381,4.167
				l-0.003,0.141h6.833l-5.25-12.973c2.144-0.437,4.483-0.725,7.04-0.814v9.479c-0.042,1.771-0.289,3.588-1.298,4.167v0.141h8.081
				v-0.003l4.535-0.01c6.939,0,11.979-2.515,11.979-8.888C543.677,252.219,537.25,250.96,534.262,250.92 M497.388,256.726
				l5.712-14.097l3.692,9.11C502.986,253.113,499.87,254.901,497.388,256.726 M525.859,240.623c0.003-0.195,0.01-0.39,0.027-0.589
				c0.764-0.042,1.466-0.121,2.233-0.121c5.801,0,7.631,1.394,7.631,4.255c0,4.008-4.315,4.882-8.543,4.882
				c-0.416,0-0.512,0-1.348-0.07V240.623z M530.521,263.344c-1.785,0-2.952-0.084-4.663-0.359v-9.792
				c0.623-0.074,1.301-0.113,1.872-0.113c5.492,0,10.109,0.551,10.109,5.386C537.84,261.393,536.053,263.344,530.521,263.344"/>
		</g>
	</g>
</g>
<g>
</g>
<g>
</g>
<g>
</g>
<g>
</g>
<g>
</g>
<g>
</g>
<g>
</g>
<g>
</g>
<g>
</g>
<g>
</g>
<g>
</g>
<g>
</g>
<g>
</g>
<g>
</g>
<g>
</g>
</svg>
